<svg width="58" height="58" viewBox="0 0 58 58" fill="none" xmlns="http://www.w3.org/2000/svg">
<g clip-path="url(#clip0)">
<path d="M54.8896 16.9322C54.8896 14.3316 52.7813 12.2234 50.1808 12.2234H7.81871C5.21813 12.2234 3.10992 14.3316 3.10992 16.9322V51.1368H54.8897V16.9322H54.8896Z" fill="#A59CA6"/>
<path d="M35.0187 45.5032C33.9693 45.5032 32.9879 46.0225 32.3975 46.89L32.1859 47.201H25.7003L25.4889 46.8904C24.898 46.0218 23.918 45.5032 22.8675 45.5032H13.2238C11.7123 45.5032 10.4869 44.2779 10.4869 42.7663V14.532C10.4869 13.693 10.7074 12.9058 11.0921 12.2234H7.81871C5.21813 12.2234 3.10992 14.3316 3.10992 16.9322V51.1368H8.60593H54.8896V48.7367V45.5033H35.0187V45.5032Z" fill="#8F8390"/>
<path d="M50.1802 15.8538C50.7758 15.8538 51.2587 16.3366 51.2587 16.9322V43.2177C51.2587 43.7281 50.8448 44.142 50.3344 44.142H7.66401C7.15361 44.142 6.73975 43.7281 6.73975 43.2177V16.9322C6.73975 16.3366 7.22258 15.8538 7.81819 15.8538H50.1802Z" fill="#B3E5EE"/>
<path d="M10.4862 42.7663V15.8538H7.81819C7.22258 15.8538 6.73975 16.3366 6.73975 16.9322V43.2177C6.73975 43.7283 7.15349 44.142 7.66401 44.142H10.8574C10.6218 43.7377 10.4862 43.268 10.4862 42.7663Z" fill="#86D7E5"/>
<path d="M40.9138 22.7652C40.9138 25.2005 38.9396 27.1747 36.5043 27.1747H21.4951C19.0598 27.1747 17.0856 25.2006 17.0856 22.7652V11.5932L28.9997 6.72077L40.9138 12.2234V22.7652Z" fill="#DED4CF"/>
<path d="M34.273 48.1664L34.0179 48.5414C33.6226 49.1222 32.9654 49.4699 32.2628 49.4699H25.6226C24.92 49.4699 24.2629 49.1223 23.8676 48.5414L23.6124 48.1665C23.4445 47.9198 23.1654 47.7722 22.8671 47.7722H1.69136C1.22679 47.7722 0.85025 48.1487 0.85025 48.6133V49.5438C0.85025 52.2817 3.06987 54.5013 5.80783 54.5013H52.191C54.929 54.5013 57.1485 52.2817 57.1485 49.5438V48.6133C57.1485 48.1487 56.772 47.7722 56.3074 47.7722H35.0185C34.72 47.7721 34.4409 47.9197 34.273 48.1664Z" fill="#A59CA6"/>
<path d="M27.3381 22.4127C27.8299 22.6767 28.3849 22.8164 28.943 22.8164C29.501 22.8164 30.0561 22.6768 30.5479 22.4126L40.9138 16.8467V12.2234L28.9997 6.72077L17.0856 11.5932V16.9076V22.7652C17.0856 25.2005 19.0598 27.1747 21.4951 27.1747H36.5044C38.1274 27.1747 39.5446 26.2973 40.3102 24.9916C40.2582 24.9934 40.2062 24.9956 40.1538 24.9956H25.1445C22.7092 24.9956 20.735 23.0214 20.735 20.5861V20.0732C20.735 19.5278 21.317 19.1798 21.7974 19.4378L27.3381 22.4127Z" fill="#CBC0BB"/>
<path d="M28.4116 3.63306L14.6297 11.0333C13.8401 11.4572 13.8401 12.5896 14.6297 13.0135L28.4116 20.4138C28.7437 20.592 29.1429 20.592 29.4749 20.4138L43.2568 13.0135C44.0464 12.5896 44.0464 11.4572 43.2568 11.0333L29.4749 3.63306C29.1429 3.45472 28.7436 3.45472 28.4116 3.63306Z" fill="#EDE2DD"/>
<path d="M20.7459 12.451C19.9563 12.0271 19.9563 10.8947 20.7459 10.4708L31.4777 4.7084L29.4749 3.63303C29.1429 3.4548 28.7436 3.4548 28.4116 3.63303L14.6297 11.0333C13.8401 11.4572 13.8401 12.5895 14.6297 13.0135L28.4116 20.4136C28.7436 20.592 29.1429 20.592 29.4749 20.4136L32.525 18.7759L20.7459 12.451Z" fill="#DED4CF"/>
<path d="M42.9974 34.4804C44.2353 34.4804 45.2389 33.4769 45.2389 32.2389C45.2389 31.001 44.2353 29.9974 42.9974 29.9974C41.7594 29.9974 40.7559 31.001 40.7559 32.2389C40.7559 33.4769 41.7594 34.4804 42.9974 34.4804Z" fill="#F2EAE7"/>
<path d="M56.6724 46.9214H55.7407V16.9322C55.7407 13.8667 53.2466 11.3727 50.181 11.3727H47.1628C46.6928 11.3727 46.312 11.7535 46.312 12.2235C46.312 12.6936 46.6928 13.0744 47.1628 13.0744H50.181C52.3083 13.0744 54.039 14.8051 54.039 16.9322V46.9215H35.019C34.4383 46.9215 33.8965 47.208 33.5702 47.6879L33.315 48.0629C33.078 48.4113 32.6848 48.6192 32.2633 48.6192H25.623C25.2016 48.6192 24.8085 48.4113 24.5714 48.0629L24.3164 47.688C23.9899 47.2082 23.4483 46.9215 22.8675 46.9215H13.8019C13.3319 46.9215 12.951 47.3023 12.951 47.7723C12.951 48.2424 13.3319 48.6232 13.8019 48.6232H22.8675C22.8843 48.6232 22.9 48.6314 22.9095 48.6453L23.1647 49.0203C23.719 49.8347 24.6379 50.321 25.623 50.321H32.2633C33.2486 50.321 34.1677 49.8347 34.7219 49.0202L34.977 48.6452C34.9864 48.6314 35.0021 48.6232 35.0189 48.6232H56.2982V49.5438C56.2982 51.8083 54.4559 53.6506 52.1914 53.6506H5.80844C3.54401 53.6506 1.70172 51.8083 1.70172 49.5438V48.6232H10.1757C10.6458 48.6232 11.0266 48.2424 11.0266 47.7723C11.0266 47.3023 10.6458 46.9215 10.1757 46.9215H3.96105V16.9322C3.96105 14.8051 5.6917 13.0744 7.81897 13.0744H10.3281C10.7981 13.0744 11.179 12.6936 11.179 12.2235C11.179 11.7535 10.7981 11.3727 10.3281 11.3727H7.81897C4.75348 11.3727 2.25932 13.8666 2.25932 16.9322V46.9215H1.32757C0.595604 46.9214 0 47.517 0 48.2491V49.5438C0 52.7466 2.60568 55.3523 5.80844 55.3523H52.1916C55.3943 55.3523 58 52.7466 58 49.5438V48.2491C58 47.517 57.4044 46.9214 56.6724 46.9214Z" fill="black"/>
<path d="M7.81859 16.7044H13.2987C13.7687 16.7044 14.1496 16.3236 14.1496 15.8536C14.1496 15.3836 13.7687 15.0027 13.2987 15.0027H7.81859C6.75479 15.0027 5.8894 15.8682 5.8894 16.932V44.1418C5.8894 44.6118 6.27025 44.9927 6.74027 44.9927H51.2592C51.7292 44.9927 52.1101 44.6118 52.1101 44.1418V36.9413C52.1101 36.4713 51.7292 36.0905 51.2592 36.0905C50.7892 36.0905 50.4083 36.4713 50.4083 36.9413V43.2909H7.59113V16.932C7.59113 16.8064 7.69312 16.7044 7.81859 16.7044Z" fill="black"/>
<path d="M52.1099 16.932C52.1099 15.8682 51.2444 15.0027 50.1806 15.0027H47.4247C46.9547 15.0027 46.5739 15.3836 46.5739 15.8536C46.5739 16.3236 46.9547 16.7044 47.4247 16.7044H50.1806C50.3061 16.7044 50.4082 16.8064 50.4082 16.932V33.3152C50.4082 33.7852 50.7891 34.1661 51.2591 34.1661C51.7291 34.1661 52.1099 33.7852 52.1099 33.3152V16.932Z" fill="black"/>
<path d="M14.2277 13.7629L16.2354 14.8409V22.7652C16.2354 25.6657 18.5952 28.0254 21.4958 28.0254H36.5051C39.4056 28.0254 41.7655 25.6657 41.7655 22.7652V14.7801L42.9985 14.118V29.2669C41.706 29.6375 40.757 30.8292 40.757 32.2392C40.757 33.9444 42.1443 35.3316 43.8494 35.3316C45.5545 35.3316 46.9418 33.9444 46.9418 32.2392C46.9418 30.8292 45.9928 29.6374 44.7003 29.2669V12.0233C44.7003 12.0233 44.7003 12.0232 44.7003 12.0231C44.7003 11.2946 44.3015 10.6282 43.6597 10.2836L29.878 2.88346C29.2932 2.5691 28.5946 2.5691 28.0096 2.88335L14.2277 10.2836C13.5858 10.6282 13.1871 11.2949 13.1872 12.0234C13.1872 12.7519 13.5859 13.4185 14.2277 13.7629ZM45.2402 32.2392C45.2402 33.006 44.6163 33.6299 43.8495 33.6299C43.0827 33.6299 42.4589 33.006 42.4589 32.2392C42.4589 31.4724 43.0827 30.8486 43.8495 30.8486C44.6163 30.8486 45.2402 31.4726 45.2402 32.2392ZM15.0327 11.7828L28.8149 4.38257C28.8957 4.33935 28.9919 4.33923 29.0728 4.38268L42.8547 11.7828C42.9799 11.8501 42.9985 11.9624 42.9985 12.0233C42.9985 12.0842 42.9799 12.1964 42.8547 12.2637L29.0727 19.6639C28.992 19.7074 28.8954 19.7074 28.8147 19.6639L24.9099 17.5673C24.4959 17.3448 23.9802 17.5004 23.7578 17.9145C23.5355 18.3285 23.6909 18.8443 24.105 19.0665L28.0096 21.1632C28.3021 21.3203 28.6229 21.3988 28.9438 21.3988C29.2646 21.3988 29.5854 21.3203 29.8778 21.1632L40.0637 15.6938V22.7652C40.0637 24.7274 38.4674 26.3237 36.5051 26.3237H21.4959C19.5336 26.3237 17.9372 24.7274 17.9372 22.7652V15.7546L20.8086 17.2964C21.2227 17.519 21.7387 17.3633 21.9607 16.9492C22.183 16.5353 22.0276 16.0194 21.6135 15.7972L15.0327 12.2636C14.9075 12.1964 14.8889 12.0842 14.8889 12.0233C14.8889 11.9624 14.9075 11.8501 15.0327 11.7828Z" fill="black"/>
</g>
<defs>
<clipPath id="clip0">
<rect width="58" height="58" fill="white"/>
</clipPath>
</defs>
</svg>
