<svg width="58" height="58" viewBox="0 0 58 58" fill="none" xmlns="http://www.w3.org/2000/svg">
<path d="M36.8765 33.8289L41.7915 37.2091C43.8723 38.6401 45.1154 41.0038 45.1154 43.5292V47.0169C45.1154 47.7554 44.5167 48.354 43.7783 48.354H15.9821C15.2436 48.354 14.645 47.7554 14.645 47.0169V43.5292C14.645 41.0038 15.8881 38.6401 17.9689 37.2091L22.8839 33.8289L24.9509 32.3681L29.9368 34.3729L34.9144 32.3681L36.8765 33.8289Z" fill="#E79098"/>
<path d="M25.67 23.343H34.0901V35.2257H25.67V23.343Z" fill="#FFD1C2"/>
<path d="M35.7233 5.09349L36.3368 5.18478C39.4404 5.64633 41.5911 8.52448 41.1539 11.6317L40.4345 16.7462L39.9227 19.0236H32.3533L32.0622 4.76666H34.308L35.7233 5.09349Z" fill="#A59CA6"/>
<path d="M37.1017 16.0254L37.9353 11.628C38.5531 9.63253 38.5033 7.54196 37.8112 5.61106C37.3512 5.40727 36.8585 5.26246 36.3369 5.18478L35.7234 5.09349L34.3081 4.76666H32.0622L32.3533 19.0235H33.198L33.3476 18.9889L37.1017 16.0254Z" fill="#8F8390"/>
<path d="M35.549 15.0841L32.5932 17.4176L20.8091 20.14L19.5179 16.5076C17.9865 12.7931 18.3357 8.56866 20.4564 5.15604C22.6048 1.69885 26.7827 0.0820758 30.6986 1.1924L30.9582 1.266C35.2283 2.47679 37.6431 6.98737 36.2829 11.2122L35.549 15.0841Z" fill="#A59CA6"/>
<path d="M21.0123 21.3818C19.6663 21.3818 18.5751 20.2906 18.5751 18.9446C18.5751 17.5987 19.6663 16.5075 21.0123 16.5075H26.1377V21.3818H21.0123Z" fill="#FFD1C2"/>
<path d="M38.7482 21.3818C40.0941 21.3818 41.1853 20.2906 41.1853 18.9446C41.1853 17.5987 40.0941 16.5075 38.7482 16.5075H33.8575V21.3818H38.7482Z" fill="#FFD1C2"/>
<path d="M29.8802 28.8225C34.2372 28.8225 37.7692 25.2905 37.7692 20.9334V15.4359C37.7692 13.4697 36.9115 11.6014 35.4204 10.3198L34.3392 9.39032C34.088 9.1744 33.7184 9.16873 33.4607 9.37683L32.3065 10.3091H26.9229C24.1993 10.3091 21.9913 12.5171 21.9913 15.2406V20.9333C21.9911 25.2905 25.5231 28.8225 29.8802 28.8225Z" fill="#FFE0D1"/>
<path d="M26.4941 12.7951H33.3789C33.9522 12.7951 34.5082 12.5986 34.9542 12.2383L35.931 11.4495C36.0472 11.3556 36.1814 11.2906 36.319 11.2569C36.0525 10.9192 35.7521 10.605 35.4205 10.32L34.3393 9.39056C34.0881 9.17465 33.7185 9.16898 33.4608 9.37707L32.3066 10.3094H26.923C24.5092 10.3094 22.5002 12.0446 22.0745 14.335C23.2883 13.3722 24.8242 12.7951 26.4941 12.7951Z" fill="#FFD1C2"/>
<path d="M30.7305 48.3543V36.0403C30.7305 35.5705 30.3497 35.1898 29.88 35.1898C29.4103 35.1898 29.0295 35.5705 29.0295 36.0403V48.3543H30.7305Z" fill="#E17983"/>
<path d="M36.8764 33.8288L34.9145 32.3679L29.9369 34.3728L28.3063 33.7171L28.3007 33.7199L28.3054 33.7166L24.9509 32.3678L22.8839 33.8287L17.969 37.2089C15.8881 38.64 14.645 41.0036 14.645 43.529V47.0167C14.645 47.7552 15.2437 48.3539 15.9821 48.3539H18.0839C18.0834 48.3383 18.0816 48.3231 18.0816 48.3075V44.8198C18.0816 42.2943 19.3247 39.9308 21.4055 38.4996L22.6481 37.6451C23.0044 37.4001 23.4906 37.4801 23.7496 37.8265C24.1604 38.3757 24.7582 38.7685 25.4345 38.8827C25.8375 38.9507 26.2461 38.9241 26.6318 38.8066L29.8801 37.8181L33.1286 38.8067C33.3746 38.8816 33.6303 38.9197 33.8874 38.9197C34.7048 38.9197 35.4853 38.5289 35.9751 37.874L38.2771 34.7962C38.2767 34.7944 38.2766 34.7935 38.2763 34.7918L36.8764 33.8288Z" fill="#E17983"/>
<path d="M25.6701 31.0969L29.88 33.1612V36.0403L26.1365 37.1796C25.7714 37.2907 25.3758 37.1611 25.1472 36.8555L22.8838 33.8292C22.6214 33.4783 22.6773 32.9839 23.0113 32.7004L24.7686 31.2092C25.0201 30.9958 25.3741 30.9517 25.6701 31.0969Z" fill="#F9F7F7"/>
<path d="M34.0901 31.0969L29.8801 33.1612V36.0403L33.6237 37.1796C33.9888 37.2907 34.3844 37.1611 34.613 36.8555L36.8764 33.8292C37.1388 33.4783 37.0829 32.9839 36.7489 32.7004L34.9916 31.2092C34.7401 30.9958 34.3862 30.9517 34.0901 31.0969Z" fill="#F9F7F7"/>
<path d="M42.4926 50.0843L43.449 52.0222C43.4888 52.1029 43.5657 52.1588 43.6547 52.1717L45.7934 52.4824C46.0175 52.515 46.1069 52.7903 45.9448 52.9484L44.3973 54.4569C44.3329 54.5196 44.3035 54.6101 44.3187 54.6987L44.684 56.8286C44.7223 57.0518 44.488 57.222 44.2876 57.1166L42.3747 56.111C42.2951 56.0691 42.2001 56.0691 42.1205 56.111L40.2076 57.1166C40.0072 57.222 39.7729 57.0518 39.8113 56.8286L40.1765 54.6987C40.1917 54.6101 40.1624 54.5196 40.098 54.4569L38.5505 52.9484C38.3883 52.7903 38.4778 52.515 38.7019 52.4824L40.8405 52.1717C40.9295 52.1588 41.0064 52.1029 41.0462 52.0222L42.0027 50.0843C42.1028 49.8812 42.3923 49.8812 42.4926 50.0843Z" fill="#FBE88C"/>
<path d="M17.2679 50.0843L16.3115 52.0222C16.2717 52.1029 16.1948 52.1588 16.1058 52.1717L13.9671 52.4824C13.743 52.515 13.6536 52.7903 13.8157 52.9484L15.3632 54.4569C15.4276 54.5196 15.457 54.6101 15.4418 54.6987L15.0765 56.8286C15.0382 57.0518 15.2725 57.222 15.4729 57.1166L17.3857 56.111C17.4654 56.0691 17.5604 56.0691 17.64 56.111L19.5529 57.1166C19.7532 57.222 19.9875 57.0518 19.9492 56.8286L19.5839 54.6987C19.5687 54.6101 19.5981 54.5196 19.6625 54.4569L21.21 52.9484C21.3722 52.7903 21.2827 52.515 21.0586 52.4824L18.92 52.1717C18.8309 52.1588 18.7541 52.1029 18.7143 52.0222L17.7578 50.0843C17.6576 49.8812 17.3681 49.8812 17.2679 50.0843Z" fill="#FBE88C"/>
<path d="M21.1335 48.3543V43.5516C21.1335 43.0818 20.7527 42.7011 20.283 42.7011C19.8133 42.7011 19.4325 43.0818 19.4325 43.5516V48.3543H21.1335Z" fill="#E17983"/>
<path d="M40.3275 43.5516C40.3275 43.0818 39.9467 42.7011 39.477 42.7011C39.0073 42.7011 38.6265 43.0818 38.6265 43.5516C38.6265 43.5516 38.619 48.0127 38.6119 48.3543H40.313C40.3174 48.1477 40.3275 43.5516 40.3275 43.5516Z" fill="#E17983"/>
<path d="M30.364 44.7745L32.0318 48.1539C32.1012 48.2945 32.2354 48.3919 32.3905 48.4145L36.1199 48.9565C36.5106 49.0133 36.6666 49.4934 36.3839 49.769L33.6852 52.3995C33.5729 52.5089 33.5217 52.6666 33.5482 52.8211L34.1853 56.5354C34.2521 56.9246 33.8436 57.2213 33.4941 57.0375L30.1585 55.2839C30.0197 55.2109 29.8539 55.2109 29.7151 55.2839L26.3795 57.0375C26.03 57.2212 25.6215 56.9245 25.6883 56.5354L26.3254 52.8211C26.3519 52.6665 26.3007 52.5089 26.1884 52.3995L23.4898 49.769C23.207 49.4934 23.3631 49.0132 23.7538 48.9565L27.4831 48.4145C27.6382 48.3919 27.7724 48.2945 27.8418 48.1539L29.5096 44.7745C29.6844 44.4204 30.1892 44.4204 30.364 44.7745Z" fill="#FBE88C"/>
<path d="M34.1853 56.5354L34.088 55.9684L30.3089 53.9816C30.1457 53.8959 29.9508 53.8959 29.7877 53.9816L27.7566 55.0494C27.5577 55.154 27.3253 54.9851 27.3633 54.7636L27.8392 51.9882C27.8657 51.8337 27.8145 51.676 27.7022 51.5666L26.385 50.2827C26.1382 50.042 26.2744 49.6227 26.6156 49.573L28.7657 49.2606C28.9208 49.238 29.055 49.1406 29.1244 49L30.7869 45.6315L30.3639 44.7745C30.1891 44.4204 29.6843 44.4204 29.5095 44.7745L27.8417 48.1539C27.7723 48.2945 27.6381 48.3919 27.483 48.4145L23.7537 48.9564C23.3629 49.0132 23.2069 49.4934 23.4897 49.7689L26.1883 52.3994C26.3006 52.5089 26.3518 52.6665 26.3253 52.821L25.6882 56.5353C25.6214 56.9245 26.03 57.2213 26.3794 57.0376L29.715 55.2839C29.8538 55.211 30.0196 55.211 30.1584 55.2839L33.494 57.0376C33.8436 57.2213 34.2521 56.9245 34.1853 56.5354Z" fill="#FBE372"/>
<path d="M43.2831 35.4195C42.833 36.5661 41.9954 37.3838 40.8119 37.9076C40.5581 38.0199 40.5673 38.3807 40.8251 38.4834C41.9618 38.9361 42.8031 39.7361 43.2735 40.9688C43.3711 41.2245 43.7188 41.2463 43.8457 41.0037C44.4215 39.9024 45.3101 39.0786 46.4649 38.4912C46.6937 38.3748 46.6964 38.0532 46.4696 37.9332C45.3102 37.3197 44.4331 36.4756 43.8478 35.3928C43.722 35.1599 43.3797 35.173 43.2831 35.4195Z" fill="#FBE88C"/>
<path d="M13.872 25.1329C13.4468 26.2164 12.6552 26.9892 11.5368 27.4841C11.2971 27.5902 11.3057 27.9311 11.5493 28.0282C12.6235 28.4561 13.4184 29.212 13.863 30.3769C13.9552 30.6185 14.2838 30.6391 14.4037 30.4099C14.9478 29.3692 15.7874 28.5907 16.8788 28.0356C17.0949 27.9256 17.0975 27.6218 16.8832 27.5082C15.7876 26.9285 14.9589 26.1308 14.4057 25.1076C14.2867 24.8876 13.9634 24.9001 13.872 25.1329Z" fill="#FBE88C"/>
<path d="M45.9657 48.3543V44.2375C45.9657 43.7676 45.5849 43.3869 45.1152 43.3869C44.6454 43.3869 44.2646 43.7676 44.2646 44.2375V48.3543C44.2646 48.8241 44.6454 49.2048 45.1152 49.2048C45.5849 49.2048 45.9657 48.824 45.9657 48.3543Z" fill="black"/>
<path d="M46.8674 37.1813C45.844 36.6398 45.101 35.9223 44.596 34.988C44.3806 34.5896 43.9492 34.3504 43.4974 34.3776C43.043 34.4052 42.6574 34.6853 42.4913 35.1085C42.1316 36.0251 41.4695 36.6862 40.4676 37.1296C40.0387 37.3195 39.7674 37.7447 39.7761 38.2132C39.7849 38.6831 40.0731 39.0991 40.5101 39.2733C41.467 39.6544 42.1109 40.3082 42.4786 41.2719C42.6422 41.7008 43.0429 41.9953 43.4993 42.022C43.522 42.0234 43.5446 42.0241 43.5671 42.0241C43.9974 42.0241 44.3973 41.7836 44.5992 41.3977C45.0802 40.4777 45.8165 39.7749 46.8504 39.2491C47.2405 39.0507 47.485 38.6563 47.4884 38.22C47.492 37.7836 47.2539 37.3856 46.8674 37.1813ZM43.6265 39.7575C43.2348 39.113 42.7209 38.5853 42.0886 38.1782C42.7227 37.7583 43.2365 37.2382 43.6252 36.6219C44.0761 37.2282 44.6275 37.7565 45.2751 38.2028C44.6227 38.6395 44.0716 39.1591 43.6265 39.7575Z" fill="black"/>
<path d="M14.0739 31.4188C14.0962 31.4202 14.1185 31.4208 14.1406 31.4208C14.5645 31.4208 14.9584 31.1839 15.1572 30.8038C15.6071 29.9434 16.2962 29.2857 17.2642 28.7935C17.6484 28.5981 17.8893 28.2098 17.8927 27.7799C17.8962 27.3502 17.6618 26.9579 17.2807 26.7563C16.3222 26.2492 15.6265 25.5775 15.1536 24.7029C14.9414 24.3106 14.518 24.0749 14.0715 24.1017C13.6238 24.1289 13.2439 24.4048 13.0801 24.8219V24.822C12.7449 25.6761 12.1275 26.2925 11.1926 26.7062C10.7699 26.8931 10.5026 27.3123 10.5112 27.7739C10.52 28.2368 10.8038 28.6467 11.2344 28.8182C12.1256 29.1731 12.7254 29.7821 13.068 30.68C13.2295 31.1024 13.6243 31.3925 14.0739 31.4188ZM14.1983 26.3513C14.6065 26.8883 15.0988 27.3599 15.6716 27.7626C15.0952 28.1565 14.6036 28.62 14.2002 29.1493C13.8437 28.5807 13.3853 28.1096 12.8279 27.7393C13.3864 27.3591 13.8443 26.8953 14.1983 26.3513Z" fill="black"/>
<path d="M36.242 48.1147L32.7073 47.6011L31.1265 44.398C31.0314 44.2052 30.8946 44.0436 30.7304 43.9209V37.1882L33.3756 37.9933C33.5433 38.0443 33.7147 38.069 33.8845 38.069C34.4289 38.0689 34.957 37.8152 35.2938 37.365L37.0677 34.9932L38.322 35.8559C38.4692 35.9571 38.637 36.0057 38.8032 36.0057C39.0738 36.0057 39.3398 35.8767 39.5048 35.637C39.771 35.25 39.673 34.7205 39.2859 34.4542L37.8826 33.489C37.9312 32.9601 37.7304 32.418 37.299 32.0518L35.5417 30.5608C35.3623 30.4085 35.1571 30.2997 34.9405 30.2344V28.0561C35.0991 27.9433 35.2553 27.8269 35.4064 27.7033C35.7702 27.406 35.8241 26.8701 35.5268 26.5064C35.2296 26.1427 34.6938 26.089 34.33 26.386C33.0785 27.4089 31.4981 27.972 29.8799 27.972C25.9988 27.972 22.8413 24.8144 22.8413 20.9335V15.2408C22.8413 12.9905 24.6721 11.1599 26.9225 11.1599H32.3061C32.5006 11.1599 32.6892 11.0932 32.8406 10.971L33.8883 10.1246L34.8658 10.9649C36.1703 12.0863 36.9185 13.7159 36.9185 15.4362V20.9336C36.9185 21.9332 36.7114 22.9017 36.3027 23.8119C36.1103 24.2404 36.3017 24.7438 36.7303 24.9361C37.1587 25.1286 37.6621 24.9373 37.8546 24.5086C38.183 23.777 38.4049 23.0151 38.5219 22.2324H38.7481C40.5608 22.2324 42.0357 20.7575 42.0357 18.9447C42.0357 18.1514 41.7532 17.4229 41.2836 16.8543L41.9963 11.7881C42.4965 8.23229 40.0139 4.9096 36.4621 4.3816L36.2813 4.35472C35.1421 2.4406 33.3488 1.06004 31.19 0.447898L30.9306 0.374413C27.9432 -0.472703 24.6789 0.138196 22.1987 2.00854C21.8237 2.29137 21.7489 2.8247 22.0318 3.19972C22.3145 3.57486 22.8477 3.64947 23.2229 3.36676C25.2804 1.81508 27.9883 1.30839 30.4666 2.01104L30.7261 2.08452C32.5673 2.60663 34.0787 3.82332 34.982 5.51063C35.6487 6.75613 35.917 8.13533 35.7765 9.50489L34.8933 8.74566C34.3307 8.26223 33.5034 8.24953 32.9261 8.71573L32.0057 9.45919H26.9227C23.7344 9.45919 21.1405 12.0529 21.1405 15.2411V15.6574H21.0122C20.7122 15.6574 20.4219 15.6986 20.1456 15.7741C18.9479 12.5194 19.2709 8.83797 21.0379 5.83973C21.2764 5.43511 21.1417 4.91368 20.737 4.6752C20.3323 4.4366 19.8109 4.57144 19.5724 4.97606C17.4946 8.5014 17.159 12.8508 18.6602 16.6512C18.082 17.244 17.7246 18.0534 17.7246 18.945C17.7246 20.7577 19.1994 22.2325 21.0123 22.2325H21.2376C21.596 24.6269 22.9299 26.705 24.8196 28.0523V30.2344C24.603 30.2998 24.3978 30.4085 24.2184 30.5608L22.461 32.0519C22.0296 32.4181 21.8288 32.9603 21.8774 33.4892L17.4869 36.5086C15.1748 38.0986 13.7944 40.7233 13.7944 43.5296V48.3544C13.7944 48.8242 14.1752 49.2049 14.645 49.2049C15.1147 49.2049 15.4955 48.8242 15.4955 48.3544V43.5295C15.4955 41.2834 16.6002 39.1828 18.4508 37.91L22.6923 34.9931L24.4663 37.3649C24.8031 37.8152 25.3311 38.0689 25.8755 38.0689C26.0453 38.0689 26.2166 38.0442 26.3843 37.9932L29.0297 37.1881V44.0159C28.9157 44.123 28.8193 44.2515 28.747 44.398L27.1662 47.6011L23.6314 48.1147C23.1279 48.1879 22.7174 48.5339 22.5602 49.0179C22.403 49.5018 22.5317 50.0229 22.896 50.378L25.4538 52.8711L24.8499 56.3915C24.7638 56.8929 24.9662 57.3903 25.3777 57.6892C25.7892 57.9882 26.3247 58.0272 26.7752 57.7904L29.9367 56.1282L33.0982 57.7904C33.2942 57.8934 33.506 57.9442 33.717 57.9442C33.9909 57.9442 34.2631 57.8582 34.4957 57.6892C34.9072 57.3902 35.1095 56.8929 35.0235 56.3916L34.4196 52.8711L36.9774 50.378C37.3418 50.0229 37.4705 49.5017 37.3133 49.0179C37.156 48.5339 36.7455 48.1878 36.242 48.1147ZM38.7478 20.5312H38.6195V17.3581H38.7478C39.6226 17.3581 40.3345 18.0698 40.3345 18.9447C40.3345 19.8195 39.6226 20.5312 38.7478 20.5312ZM40.3117 11.551L39.7137 15.802C39.4082 15.7079 39.0839 15.6571 38.748 15.6571H38.6196V15.4362C38.6196 13.8451 38.1206 12.3157 37.2186 11.0441C37.6407 9.46702 37.6109 7.83754 37.1436 6.30173C39.2612 7.06617 40.6366 9.24089 40.3117 11.551ZM19.4253 18.9446C19.4253 18.0698 20.137 17.3581 21.0119 17.3581H21.1403V20.5312H21.0119C20.1371 20.5312 19.4253 19.8195 19.4253 18.9446ZM36.183 33.3357L33.9316 36.346C33.9177 36.3647 33.8932 36.3723 33.871 36.3658L30.7303 35.41V33.6914L34.4516 31.8667L36.183 33.3357ZM29.8799 29.6732C31.0385 29.6732 32.1812 29.4393 33.2394 28.9989V30.5667L29.8799 32.2138L26.5203 30.5667V29.0007C27.5552 29.4332 28.69 29.6732 29.8799 29.6732ZM25.8885 36.3658C25.8663 36.3729 25.842 36.3646 25.828 36.346L23.5766 33.3357L25.3081 31.8667L29.0294 33.6914V35.41L25.8885 36.3658ZM33.0916 51.7902C32.7788 52.095 32.636 52.5341 32.7097 52.9648L33.2187 55.9319L30.5541 54.531C30.3607 54.4294 30.1486 54.3786 29.9366 54.3786C29.7245 54.3786 29.5125 54.4293 29.3191 54.531L26.6545 55.9319L27.1634 52.9645C27.2372 52.534 27.0944 52.0949 26.7817 51.7903L24.626 49.689L27.6054 49.2562C28.0375 49.1932 28.4109 48.922 28.6042 48.5303L29.9366 45.8306L31.2689 48.5304C31.4623 48.922 31.8356 49.1934 32.268 49.2562L35.2472 49.689L33.0916 51.7902Z" fill="black"/>
<path d="M45.9154 51.6409L44.0771 51.3737L43.2551 49.7081V49.7079C43.0643 49.3217 42.6782 49.0817 42.2473 49.0817C41.8165 49.0819 41.4304 49.3218 41.2398 49.7081L40.4176 51.3737L38.5794 51.6409C38.153 51.7028 37.8054 51.9958 37.6723 52.4056C37.5391 52.8153 37.6481 53.2568 37.9566 53.5574L39.2868 54.8542L38.9728 56.6848C38.8997 57.1096 39.0711 57.5308 39.4198 57.784C39.6168 57.9271 39.8472 57.9998 40.0792 57.9998C40.2579 57.9998 40.4374 57.9567 40.6032 57.8695L42.2474 57.0052L43.8914 57.8694C44.2728 58.07 44.7261 58.0371 45.0748 57.7841C45.4234 57.5309 45.5948 57.1097 45.522 56.685L45.208 54.8542L46.5381 53.5575C46.8467 53.2568 46.9556 52.8154 46.8225 52.4057C46.6894 51.9958 46.3417 51.7028 45.9154 51.6409ZM43.8032 53.8479C43.5385 54.106 43.4177 54.4778 43.4801 54.8426L43.6477 55.8195L42.7705 55.3584C42.6066 55.2723 42.427 55.2292 42.2473 55.2292C42.0678 55.2292 41.8881 55.2723 41.7245 55.3583L40.8471 55.8195L41.0147 54.8427C41.0773 54.4781 40.9565 54.1063 40.6915 53.8479L39.9817 53.1561L40.9619 53.0135C41.3281 52.9607 41.6447 52.7309 41.8087 52.3988L42.2475 51.5098L42.6863 52.399C42.8501 52.7309 43.1667 52.9607 43.5322 53.0134L44.5132 53.1561L43.8032 53.8479Z" fill="black"/>
<path d="M21.1806 51.6409L19.3423 51.3738L18.5202 49.7081C18.3295 49.3217 17.9435 49.0818 17.5127 49.0817H17.5126C17.0818 49.0817 16.6956 49.3216 16.505 49.7079V49.708L15.683 51.3736L13.8448 51.6408C13.4184 51.7027 13.0707 51.9958 12.9376 52.4056C12.8045 52.8153 12.9134 53.2567 13.222 53.5574L14.5521 54.8541L14.2381 56.685C14.1653 57.1096 14.3366 57.5308 14.6852 57.7841C14.8822 57.9271 15.1127 57.9997 15.3446 57.9997C15.5232 57.9997 15.7027 57.9565 15.8685 57.8694L17.5127 57.0051L19.1567 57.8693C19.5381 58.0699 19.9916 58.0372 20.3403 57.7839C20.689 57.5307 20.8602 57.1095 20.7873 56.685L20.4733 54.8541L21.8034 53.5574C22.112 53.2567 22.2209 52.8152 22.0878 52.4055C21.9546 51.9959 21.607 51.7028 21.1806 51.6409ZM19.0684 53.848C18.8035 54.1062 18.6827 54.4781 18.7453 54.8426L18.9129 55.8196L18.0357 55.3585C17.7081 55.1861 17.3171 55.1862 16.9897 55.3584L16.1123 55.8196L16.2799 54.8423C16.3423 54.4778 16.2214 54.1062 15.9566 53.8479L15.2468 53.156L16.2271 53.0134C16.5934 52.9606 16.9099 52.7308 17.0739 52.3987L17.5126 51.5097L17.9515 52.3989C18.1153 52.7308 18.4319 52.9606 18.7974 53.0133L19.7784 53.156L19.0684 53.848Z" fill="black"/>
<path d="M21.1335 47.7162V43.5516C21.1335 43.0818 20.7527 42.7011 20.283 42.7011C19.8132 42.7011 19.4324 43.0818 19.4324 43.5516V47.7162C19.4324 48.186 19.8132 48.5667 20.283 48.5667C20.7527 48.5667 21.1335 48.186 21.1335 47.7162Z" fill="black"/>
<path d="M38.6266 43.5516V47.7162C38.6266 48.186 39.0074 48.5667 39.4771 48.5667C39.9468 48.5667 40.3276 48.186 40.3276 47.7162V43.5516C40.3276 43.0818 39.9468 42.7011 39.4771 42.7011C39.0074 42.7011 38.6266 43.0819 38.6266 43.5516Z" fill="black"/>
</svg>
