<svg width="58" height="58" viewBox="0 0 58 58" fill="none" xmlns="http://www.w3.org/2000/svg">
<g clip-path="url(#clip0)">
<path d="M43.5008 2.9V39.6333C43.4976 40.6998 42.6339 41.5635 41.5675 41.5667C3.86748 41.5667 6.47748 41.527 5.80081 41.6537V1.05367C6.47748 0.926066 3.74761 0.966666 41.5675 0.966666C42.6339 0.969851 43.4976 1.83357 43.5008 2.9Z" fill="#FFDC00"/>
<path d="M43.5007 2.90004V39.6334C43.4975 40.6998 42.6338 41.5635 41.5673 41.5667H38.6673C39.7338 41.5635 40.5975 40.6998 40.6007 39.6334V2.90004C40.5975 1.83361 39.7338 0.96989 38.6673 0.966705H41.5673C42.6338 0.96989 43.4975 1.83361 43.5007 2.90004Z" fill="#FEC108"/>
<path d="M57.0344 39.6334V43.5H38.542C38.8366 42.8187 39.2028 42.1706 39.6344 41.5667H41.5677C42.6341 41.5635 43.4978 40.6998 43.501 39.6334H57.0344Z" fill="#F44335"/>
<path d="M43.5007 47.3669V51.2335C43.4975 52.2999 42.6338 53.1637 41.5673 53.1668H39.634C38.3987 51.4833 37.7226 49.4548 37.7007 47.3669H43.5007Z" fill="#783E22"/>
<path d="M57.0333 36.7332V39.6332H43.5V35.7665H56.0667C56.6005 35.7665 57.0333 36.1993 57.0333 36.7332Z" fill="#37474F"/>
<path d="M54.1333 36.7332V39.6332H43.5V35.7665H53.1667C53.7005 35.7665 54.1333 36.1993 54.1333 36.7332Z" fill="#607D8B"/>
<path d="M47.3669 4.83337H52.2002V16.4334H47.3669V4.83337Z" fill="#FFE0B2"/>
<path d="M43.5 4.83337H47.3667V16.4334H43.5V4.83337Z" fill="#3F51B5"/>
<path d="M57.034 5.80004V15.4667C57.034 16.0006 56.6013 16.4334 56.0674 16.4334H52.2007V4.83337H56.0674C56.6013 4.83337 57.034 5.26617 57.034 5.80004Z" fill="#F44335"/>
<path d="M57.0333 21.2668V30.9334C57.0627 31.4325 56.6861 31.8629 56.1875 31.9001H43.5V20.3001H56.1875C56.6861 20.3372 57.0627 20.7676 57.0333 21.2668Z" fill="#DFC49C"/>
<path d="M54.1333 21.2668V30.9334C54.1691 31.4245 53.8057 31.854 53.3155 31.9001H43.5V20.3001H53.3155C53.8057 20.3461 54.1691 20.7757 54.1333 21.2668Z" fill="#FFE0B2"/>
<path d="M50.2672 28.0333C51.3349 28.0333 52.2005 27.1677 52.2005 26.1C52.2005 25.0322 51.3349 24.1666 50.2672 24.1666C49.1994 24.1666 48.3338 25.0322 48.3338 26.1C48.3338 27.1677 49.1994 28.0333 50.2672 28.0333Z" fill="#F44335"/>
<path d="M5.80031 1.05377V41.6538C3.01186 42.1251 0.969846 44.5388 0.96698 47.3668L0.96698 6.76677C0.965857 3.93731 3.00976 1.52141 5.80031 1.05377Z" fill="#F44335"/>
<path d="M39.6337 53.1667C4.85306 53.1667 6.79026 53.1966 6.21606 53.1087C3.49818 52.8502 1.3307 50.7273 1.0159 48.0154C0.701105 45.3035 2.32465 42.7405 4.91106 41.8663C6.15033 41.4391 4.86659 41.5667 39.6337 41.5667C37.056 45.0037 37.056 49.7296 39.6337 53.1667Z" fill="#DFC49C"/>
<path d="M36.7337 53.1665C4.55243 53.1665 6.77383 53.1936 6.21606 53.1085C3.49818 52.8501 1.3307 50.7272 1.0159 48.0152C0.701105 45.3033 2.32465 42.7403 4.91106 41.8662C6.22669 41.4128 5.68439 41.5665 36.7337 41.5665C34.1559 45.0036 34.1559 49.7295 36.7337 53.1665Z" fill="#FFE0B2"/>
<path d="M36.676 22.9585C35.721 25.2131 34.1539 27.1553 32.152 28.5652C29.905 27.8278 27.5013 27.7077 25.192 28.2172C23.6863 28.6197 22.3044 29.3904 21.1707 30.4598C19.9454 30.1232 18.7762 29.6086 17.7003 28.9325C17.8979 28.2899 18.0498 27.6342 18.1547 26.9702C18.1887 26.006 18.101 25.0414 17.8937 24.0992C17.6713 22.1078 19.044 20.5612 19.2083 18.6375C19.391 16.5514 16.7134 16.7825 15.1967 16.1628C13.8249 15.4968 12.8804 14.1853 12.6833 12.6732C13.2389 11.3972 13.9962 10.2189 14.926 9.1835C16.9185 9.2051 18.9059 8.97779 20.842 8.50684C22.9007 8.12889 24.6445 6.76786 25.511 4.8625C27.2257 4.97383 28.9013 5.42395 30.441 6.18684V6.1965L30.4313 6.20617C29.3483 7.48456 27.9625 8.47155 26.4003 9.07717C23.0431 10.6354 23.0093 14.1038 26.8257 14.9448C28.5947 15.3412 30.18 16.3272 30.1897 18.3185C30.1897 20.3736 28.8199 21.9918 28.788 23.6545C28.7733 24.235 29.0311 24.7888 29.4847 25.1513C29.9383 25.5138 30.5354 25.6432 31.0983 25.5008C33.1419 25.2186 34.1105 23.5172 36.676 22.9585Z" fill="#00BCD4"/>
<path d="M17.8935 24.0991C18.0984 25.9444 18.5296 26.1842 17.7002 28.9227C12.2435 25.4891 10.112 18.5853 12.6832 12.6731C12.8802 14.1852 13.8248 15.4967 15.1965 16.1627C16.7122 16.7814 19.3909 16.5494 19.2082 18.6374C19.0438 20.5611 17.6712 22.1077 17.8935 24.0991Z" fill="#60A917"/>
<path d="M25.511 4.86227C24.6444 6.76762 22.9007 8.12866 20.842 8.5066C18.9058 8.97756 16.9184 9.20487 14.926 9.18327C17.5987 6.18701 21.5049 4.5924 25.511 4.86227Z" fill="#549414"/>
<path d="M32.1518 28.5551V28.5648C28.9592 30.8074 24.93 31.5026 21.1705 30.4594C22.3042 29.39 23.6861 28.6193 25.1918 28.2168C27.5007 27.71 29.9029 27.8268 32.1518 28.5551Z" fill="#549414"/>
<path d="M37.7012 17.8833C37.7014 19.6264 37.353 21.3519 36.6765 22.9583C35.5635 23.2433 34.5142 23.7352 33.5832 24.4083C30.9558 26.3765 28.7344 25.4842 28.7885 23.6543C28.8204 21.9849 30.1902 20.3793 30.1902 18.3183C30.1805 16.327 28.5952 15.341 26.8262 14.9447C23.0079 14.1027 23.0417 10.6333 26.4009 9.077C27.4743 8.63169 28.4773 8.03252 29.3782 7.29834C29.7657 6.96446 30.1217 6.59556 30.4415 6.19633C34.8682 8.41516 37.6738 12.9318 37.7012 17.8833Z" fill="#549414"/>
<path d="M17.4004 47.3669V56.0669C17.3994 56.4019 17.225 56.7125 16.9394 56.8878C16.6539 57.063 16.298 57.078 15.9988 56.9272L13.9688 55.9122C13.6946 55.7769 13.373 55.7769 13.0988 55.9122L11.0688 56.9272C10.7871 57.0714 10.4525 57.0675 10.1742 56.9167C9.89599 56.766 9.7099 56.4879 9.67678 56.1732C9.64488 56.0765 9.66711 55.3032 9.66711 47.3669H17.4004Z" fill="#F44335"/>
<path d="M14.5005 47.3669C14.5005 57.0412 14.5082 55.9702 14.4869 56.1712L15.9988 56.9272C16.298 57.0779 16.6539 57.063 16.9395 56.8878C17.225 56.7125 17.3995 56.4019 17.4005 56.0668V47.3669H14.5005Z" fill="#C81E1E"/>
<path d="M57.034 43.5V46.4C57.034 46.9339 56.6012 47.3667 56.0673 47.3667H37.7007C37.7004 46.0324 37.9872 44.7137 38.5417 43.5H57.034Z" fill="#FEC108"/>
<path d="M54.134 43.5V46.4C54.134 46.9339 53.7012 47.3667 53.1674 47.3667H37.7007C37.7004 46.0324 37.9872 44.7137 38.5417 43.5H54.134Z" fill="#FFDC00"/>
<path d="M54.1332 39.6334H57.0332V43.5H54.1332V39.6334Z" fill="#C81E1E"/>
<path d="M0 6.76667V47.3667C0.00426169 51.102 3.03131 54.1291 6.76667 54.1333H8.7V56.0667C8.69935 56.7381 9.04713 57.3618 9.61868 57.7142C10.1902 58.0666 10.9037 58.0972 11.5033 57.7951L13.5333 56.7772L15.5682 57.7951C16.1674 58.0949 16.8792 58.0631 17.4493 57.711C18.0193 57.3589 18.3665 56.7367 18.3667 56.0667V54.1333H41.5667C43.1683 54.1333 44.4667 52.835 44.4667 51.2333V48.3333H56.0667C57.1344 48.3333 58 47.4678 58 46.4V36.7333C58 35.6656 57.1344 34.8 56.0667 34.8H44.4667V32.8667H56.0667C57.1344 32.8667 58 32.0011 58 30.9333V21.2667C58 20.1989 57.1344 19.3333 56.0667 19.3333H44.4667V17.4H56.0667C57.1344 17.4 58 16.5344 58 15.4667V5.8C58 4.73225 57.1344 3.86667 56.0667 3.86667H44.4667V2.9C44.4667 1.29837 43.1683 0 41.5667 0H6.76667C3.03131 0.00426169 0.00426169 3.03131 0 6.76667ZM1.93333 6.76667C1.93586 4.84713 3.07405 3.11101 4.83333 2.3432V40.8794C3.72992 41.2037 2.73029 41.8105 1.93333 42.6397V6.76667ZM14.4033 55.0478C13.8583 54.7771 13.218 54.7771 12.673 55.0478L10.6333 56.0667V48.3333H16.4333V56.0667L14.4033 55.0478ZM18.3667 48.3333H22.2333C22.7672 48.3333 23.2 47.9005 23.2 47.3667C23.2 46.8328 22.7672 46.4 22.2333 46.4H5.8C5.26612 46.4 4.83333 46.8328 4.83333 47.3667C4.83333 47.9005 5.26612 48.3333 5.8 48.3333H8.7V52.2H6.76667C4.09729 52.2 1.93333 50.036 1.93333 47.3667C1.93333 44.6973 4.09729 42.5333 6.76667 42.5333H37.9223C36.3374 45.5607 36.3374 49.1727 37.9223 52.2H18.3667V48.3333ZM44.2888 40.6H56.0667V42.5333H41.5667C42.7912 42.5283 43.8806 41.7545 44.2888 40.6ZM42.5333 51.2333C42.5333 51.7672 42.1005 52.2 41.5667 52.2H40.1544C39.389 51.0369 38.8993 49.7144 38.7227 48.3333H42.5333V51.2333ZM38.7227 46.4C38.8014 45.7396 38.9574 45.0906 39.1877 44.4667H56.0667V46.4H38.7227ZM56.0667 36.7333V38.6667H44.4667V36.7333H56.0667ZM56.0667 21.2667V30.9333H44.4667V21.2667H56.0667ZM48.3333 15.4667V5.8H51.2333V15.4667H48.3333ZM56.0667 15.4667H53.1667V5.8H56.0667V15.4667ZM46.4 5.8V15.4667H44.4667V5.8H46.4ZM42.5333 2.9V39.6333C42.5333 40.1672 42.1005 40.6 41.5667 40.6H6.76667V1.93333H41.5667C42.1005 1.93333 42.5333 2.36612 42.5333 2.9Z" fill="black"/>
<path d="M50.2668 28.9999C51.8685 28.9999 53.1668 27.7015 53.1668 26.0999C53.1668 24.4983 51.8685 23.1999 50.2668 23.1999C48.6652 23.1999 47.3668 24.4983 47.3668 26.0999C47.3668 27.7015 48.6652 28.9999 50.2668 28.9999ZM50.2668 25.1332C50.8007 25.1332 51.2335 25.566 51.2335 26.0999C51.2335 26.6338 50.8007 27.0666 50.2668 27.0666C49.733 27.0666 49.3002 26.6338 49.3002 26.0999C49.3002 25.566 49.733 25.1332 50.2668 25.1332Z" fill="black"/>
<path d="M17.0662 29.6526C17.0855 29.6659 17.1055 29.6782 17.1262 29.6893C23.3834 33.681 31.6683 32.0959 36.0103 26.0764C40.3522 20.057 39.2421 11.6952 33.48 7.01708C27.7179 2.339 19.3064 2.97049 14.3074 8.45648C14.2586 8.49973 14.2145 8.54801 14.1759 8.60051C11.4556 11.6524 10.2092 15.743 10.7652 19.7932C11.3213 23.8435 13.6241 27.4467 17.0662 29.6526ZM12.8129 15.4426C13.3176 16.1586 14.0138 16.7181 14.8216 17.0569C16.3973 17.7104 18.3258 17.5103 18.2408 18.5562C18.1395 19.2785 17.9354 19.9826 17.6347 20.6471C16.7511 22.9062 16.8004 23.5916 17.0672 25.1266C17.2695 25.8401 17.2831 26.5939 17.1068 27.3142C13.5525 24.4809 11.8938 19.8894 12.8168 15.4387L12.8129 15.4426ZM23.5429 29.9145C25.3597 28.9741 27.4309 28.6433 29.4502 28.9711C27.5932 29.7807 25.5605 30.1041 23.5439 29.9107L23.5429 29.9145ZM31.9404 27.4979C29.668 26.8436 27.2682 26.7679 24.9591 27.2775C23.4818 27.6668 22.1125 28.3875 20.9552 29.3848C20.2183 29.1472 19.5061 28.839 18.8285 28.4645C19.2182 27.2777 19.2704 26.006 18.9793 24.7912C18.7666 23.5587 18.7019 23.2358 19.4423 21.346C19.8151 20.5094 20.0614 19.6219 20.1731 18.7128C20.2818 17.5873 19.636 16.5247 18.5868 16.1028C16.5819 15.2251 14.5268 15.98 13.7109 12.7939C14.1521 11.8421 14.7152 10.9517 15.3862 10.1452C17.3057 10.1354 19.2173 9.89983 21.0818 9.44344C23.1755 9.02621 24.9919 7.73611 26.0756 5.89674C26.994 6.00664 27.8965 6.22302 28.7649 6.54151C27.9303 7.22591 27.0002 7.78474 26.0041 8.20031C24.5251 8.80151 23.4151 10.0633 23.0074 11.6068C22.5966 13.9056 24.5927 15.4387 26.6198 15.8901C31.6243 17.0008 27.8765 20.9729 27.8204 23.6341C27.7914 24.4111 28.0922 25.1643 28.6484 25.7076C29.2046 26.251 29.9646 26.5339 30.7407 26.4867C32.0653 26.3886 33.3278 25.8866 34.358 25.0483C33.6725 25.9748 32.8588 26.7993 31.9413 27.4969L31.9404 27.4979ZM17.6105 8.08238C19.4028 6.78798 21.5182 6.01449 23.7227 5.84744C22.2466 7.42408 19.9228 7.84168 17.6105 8.08238ZM35.9375 22.1599C33.4667 22.9033 32.5851 24.3301 30.9737 24.537C30.6254 24.6045 30.2648 24.5216 29.9809 24.3088C29.0384 23.462 31.1535 20.9584 31.1535 18.3155C31.1467 16.154 29.6455 14.5822 27.0365 14.0032C26.9398 13.9819 24.6382 13.4512 24.9098 11.949C25.2116 11.0359 25.9069 10.3062 26.8045 9.96061C28.2448 9.37411 29.5548 8.50806 30.6586 7.41248C35.8145 10.3536 38.0558 16.6149 35.9375 22.1599Z" fill="black"/>
<path d="M32.8669 33.8331H16.4336C15.8998 33.8331 15.467 34.2659 15.467 34.7997C15.467 35.3336 15.8998 35.7664 16.4336 35.7664H32.8669C33.4008 35.7664 33.8336 35.3336 33.8336 34.7997C33.8336 34.2659 33.4008 33.8331 32.8669 33.8331Z" fill="black"/>
</g>
<defs>
<clipPath id="clip0">
<rect width="58" height="58" fill="white"/>
</clipPath>
</defs>
</svg>
