<svg width="58" height="58" viewBox="0 0 58 58" fill="none" xmlns="http://www.w3.org/2000/svg">
<g clip-path="url(#clip0)">
<path d="M43.7601 57.0704V20.0383C43.7601 19.5968 43.4023 19.239 42.9608 19.239H33.4958C32.8924 19.239 32.4031 19.7282 32.4031 20.3316V28.099V57.0704H43.7601Z" fill="#FBE88C"/>
<path d="M35.4689 30.8883V24.1473C35.4689 22.9769 36.4177 22.0282 37.5879 22.0282H43.7601V20.0385C43.7601 19.597 43.4023 19.2392 42.9608 19.2392H33.4958C32.8924 19.2392 32.4031 19.7284 32.4031 20.3318V28.0992V57.0706H35.4689V30.8883Z" fill="#FBE372"/>
<path d="M55.1166 57.0707H43.7596V15.0164C43.7596 14.5749 44.1175 14.2171 44.559 14.2171H54.3172C54.7587 14.2171 55.1165 14.5749 55.1165 15.0164V57.0707H55.1166Z" fill="#E79098"/>
<path d="M47.0666 18.2426C47.0666 17.4061 47.7446 16.7282 48.5811 16.7282H55.1166V15.0164C55.1166 14.5749 54.7588 14.2171 54.3173 14.2171H44.559C44.1175 14.2171 43.7596 14.5749 43.7596 15.0164V57.0705H47.0666V18.2426Z" fill="#E17983"/>
<path d="M33.5293 57.0707V28.8987C33.5293 28.4572 33.1715 28.0994 32.73 28.0994H22.9717C22.5303 28.0994 22.1724 28.4572 22.1724 28.8987V57.0707H33.5293Z" fill="#E79098"/>
<path d="M25.3006 31.8268C25.3006 31.136 25.8606 30.5762 26.5512 30.5762H33.5289V28.8987C33.5289 28.4572 33.1711 28.0994 32.7296 28.0994H22.9713C22.5298 28.0994 22.172 28.4572 22.172 28.8987V57.0706H25.3006V31.8268Z" fill="#E17983"/>
<path d="M29.0631 24.3884C35.5446 24.3884 40.7988 19.1341 40.7988 12.6527C40.7988 6.17118 35.5446 0.916904 29.0631 0.916904C22.5816 0.916904 17.3273 6.17118 17.3273 12.6527C17.3273 19.1341 22.5816 24.3884 29.0631 24.3884Z" fill="#B3E5EE"/>
<path d="M33.9077 22.9122C27.4262 22.9122 22.1719 17.6579 22.1719 11.1765C22.1719 6.7903 24.5785 2.9668 28.1428 0.952637C22.0915 1.42206 17.3273 6.4809 17.3273 12.6526C17.3273 19.1341 22.5816 24.3884 29.0631 24.3884C31.1584 24.3884 33.1247 23.8398 34.8274 22.8776C34.5238 22.9011 34.2174 22.9122 33.9077 22.9122Z" fill="#86D7E5"/>
<path d="M22.8671 20.1291C23.8208 20.1291 24.5939 20.9022 24.5939 21.8559C24.5939 22.8096 23.8208 23.5827 22.8671 23.5827H16.6198C16.4034 23.5827 16.1974 23.6753 16.0537 23.8371L14.271 25.8452C14.0083 26.141 14.2183 26.6084 14.614 26.6084H16.6016C17.6581 26.6084 18.3949 27.6562 18.0375 28.6505L15.9221 34.5353C15.8617 34.7032 15.7024 34.8152 15.5238 34.8152H13.4309C13.1455 34.8152 12.9419 34.5384 13.027 34.2659L14.155 30.6553C14.2824 30.2474 13.9776 29.8329 13.5503 29.8329H11.8383C11.5974 29.8329 11.3774 29.9696 11.2705 30.1855L6.06515 40.7084C5.99385 40.8527 5.84685 40.9439 5.68592 40.9439H3.2828C2.97905 40.9439 2.77422 40.6332 2.89384 40.354L7.50498 29.5941V26.898C7.50498 25.3608 8.09549 23.8825 9.15463 22.7684L12.241 19.5218C12.7264 19.0111 13.4001 18.7221 14.1048 18.7221H15.1709H16.9278L18.0949 20.1602L22.8671 20.1291Z" fill="#EDE2DD"/>
<path d="M23.774 57.0532V35.6147C23.774 35.1732 23.4161 34.8154 22.9747 34.8154H13.2164C12.775 34.8154 12.4171 35.1732 12.4171 35.6147V57.0532H23.774Z" fill="#FBE88C"/>
<path d="M16.005 38.0333C16.005 37.5918 16.3628 37.234 16.8043 37.234H23.774V35.6147C23.774 35.1732 23.4161 34.8154 22.9747 34.8154H13.2164C12.775 34.8154 12.4171 35.1732 12.4171 35.6147V57.0532H16.0051V38.0333H16.005Z" fill="#FBE372"/>
<path d="M14.9795 57.0535H3.62256V41.7434C3.62256 41.3019 3.9804 40.9441 4.42186 40.9441H14.1801C14.6216 40.9441 14.9794 41.3019 14.9794 41.7434V57.0535H14.9795Z" fill="#E79098"/>
<path d="M6.33169 44.2361C6.33169 43.7946 6.68953 43.4368 7.131 43.4368H14.9795V41.7434C14.9795 41.3019 14.6217 40.9441 14.1802 40.9441H4.42186C3.9804 40.9441 3.62256 41.3019 3.62256 41.7434V57.0535H6.33158V44.2361H6.33169Z" fill="#E17983"/>
<path d="M17.3032 20.8539C18.4806 20.8539 19.4351 19.8994 19.4351 18.722C19.4351 17.5446 18.4806 16.5902 17.3032 16.5902C16.1258 16.5902 15.1714 17.5446 15.1714 18.722C15.1714 19.8994 16.1258 20.8539 17.3032 20.8539Z" fill="#EDE2DD"/>
<path d="M57.1512 56.2999H55.9936V23.6567C55.9936 23.1878 55.6137 22.8079 55.1449 22.8079C54.676 22.8079 54.2961 23.1878 54.2961 23.6567V56.2999H44.6367V15.1438H54.2961V20.0396C54.2961 20.5084 54.676 20.8883 55.1449 20.8883C55.6137 20.8883 55.9936 20.5084 55.9936 20.0396V15.0945C55.9936 14.1857 55.2543 13.4464 54.3456 13.4464H44.5872C43.6785 13.4464 42.9391 14.1857 42.9391 15.0945V18.4685H40.3308C40.4224 18.2908 40.5104 18.1106 40.5942 17.9276C42.0011 14.8551 42.1272 11.4186 40.9492 8.2511C39.7715 5.08375 37.4306 2.56451 34.3579 1.15761C31.2854 -0.249297 27.8487 -0.375367 24.6813 0.802487C22.1051 1.76045 19.9572 3.48366 18.4695 5.78584C17.0318 8.01073 16.3159 10.6859 16.4536 13.3184C16.4773 13.7693 16.8497 14.1228 17.3013 14.1228C17.317 14.1228 17.3325 14.1224 17.3489 14.1217C17.8093 14.1121 18.1795 13.7359 18.1795 13.2732C18.1795 13.1835 18.1656 13.0971 18.1398 13.0159C18.069 10.8067 18.6888 8.5743 19.8953 6.70714C21.1829 4.71471 23.0425 3.22304 25.273 2.39352C28.0153 1.37387 30.9909 1.48285 33.6513 2.70111C36.3117 3.91925 38.3384 6.10034 39.3583 8.84285C40.3782 11.5854 40.2689 14.5607 39.0508 17.221C37.8328 19.8814 35.6516 21.9081 32.9091 22.928C31.1929 23.5661 29.3337 23.7659 27.5336 23.5056C27.0697 23.4383 26.6392 23.7602 26.5721 24.2242C26.505 24.6882 26.8267 25.1186 27.2907 25.1857C27.8838 25.2715 28.4819 25.314 29.0805 25.314C29.9194 25.314 30.758 25.2272 31.5822 25.0614V27.3285H22.9993C22.0905 27.3285 21.3512 28.0678 21.3512 28.9766V34.0446H17.0565L18.8642 29.0157C19.1255 28.289 19.0162 27.478 18.572 26.8464C18.1278 26.2147 17.4016 25.8376 16.6295 25.8376H15.5098L16.6889 24.5096H22.895C24.3152 24.5096 25.4706 23.3542 25.4706 21.9339C25.4706 20.5138 24.3152 19.3583 22.895 19.3583H20.2582C20.2926 19.1774 20.3114 18.9909 20.3114 18.8001C20.3114 17.1565 18.9743 15.8193 17.3307 15.8193C15.9821 15.8193 14.8403 16.72 14.4739 17.9513H14.1327C13.1998 17.9513 12.2963 18.3391 11.6538 19.015L8.5675 22.2615C7.3531 23.5391 6.68416 25.2133 6.68416 26.9759V29.4978L2.14159 40.0975C1.97263 40.4915 2.01269 40.9406 2.24876 41.2987C2.38705 41.5085 2.58148 41.6668 2.80431 41.7636C2.80363 41.7828 2.80136 41.8017 2.80136 41.821V56.2999H0.848761C0.379905 56.2999 0 56.6798 0 57.1486C0 57.6175 0.379905 57.9974 0.848761 57.9974H57.1512C57.6201 57.9974 58 57.6175 58 57.1486C58 56.6798 57.62 56.2999 57.1512 56.2999ZM32.7082 29.026V33.9134C32.7082 34.3823 33.0881 34.7622 33.5569 34.7622C34.0258 34.7622 34.4057 34.3823 34.4057 33.9134V28.9766C34.4057 28.2504 33.933 27.6336 33.2797 27.4146V24.5954C33.3532 24.5696 33.4276 24.5461 33.5007 24.5188C35.8453 23.6469 37.834 22.1374 39.2801 20.1659H42.9391V56.2999H34.4058V37.5304C34.4058 37.0615 34.0259 36.6816 33.5571 36.6816C33.0882 36.6816 32.7083 37.0615 32.7083 37.5304V56.2999H24.6503V35.6928C24.6503 34.7998 23.9358 34.072 23.0488 34.0471V29.026H32.7082ZM17.3308 17.5171C18.0383 17.5171 18.614 18.0928 18.614 18.8003C18.614 19.5078 18.0383 20.0834 17.3308 20.0834C16.6233 20.0834 16.0477 19.5078 16.0477 18.8003C16.0477 18.0928 16.6233 17.5171 17.3308 17.5171ZM8.3131 30.0066C8.35837 29.9009 8.38168 29.7873 8.38168 29.6723V26.9762C8.38168 25.6509 8.8846 24.392 9.79775 23.4315L12.8842 20.1849C13.2077 19.8444 13.6629 19.6492 14.1327 19.6492H14.4739C14.8404 20.8803 15.9821 21.781 17.3307 21.781C18.0735 21.781 18.7532 21.5073 19.2757 21.0562H22.8949C23.3791 21.0562 23.773 21.45 23.773 21.9342C23.773 22.4185 23.3792 22.8124 22.8949 22.8124H16.6476C16.1888 22.8124 15.7511 23.0091 15.4469 23.3521L13.664 25.3602C13.3229 25.7445 13.2386 26.2956 13.4493 26.7641C13.6601 27.2327 14.1281 27.5355 14.6419 27.5355H16.6294C16.8529 27.5355 17.0548 27.6404 17.1834 27.8232C17.312 28.0059 17.3423 28.2315 17.2667 28.4419L15.2526 34.0449H14.0378L14.9931 30.9869C15.1331 30.5386 15.0506 30.0452 14.7724 29.6669C14.4942 29.2886 14.0479 29.0627 13.5782 29.0627H11.8661C11.2984 29.0627 10.7893 29.3788 10.5375 29.8877L5.4495 40.1737H4.44954H3.95624L8.3131 30.0066ZM7.34336 40.1733L11.9998 30.7599H13.2854L12.2449 34.0908C12.2105 34.2008 12.1935 34.3139 12.1898 34.4271C11.8271 34.7297 11.5957 35.1846 11.5957 35.6928V40.1733H7.34336ZM4.499 41.8708H14.1585V46.5162C14.1585 46.985 14.5384 47.3649 15.0072 47.3649C15.4761 47.3649 15.856 46.985 15.856 46.5162V41.8215C15.856 40.9128 15.1167 40.1734 14.2079 40.1734H13.2932V35.7423H22.9526V56.2999H15.856V50.1334C15.856 49.6645 15.4761 49.2846 15.0072 49.2846C14.5384 49.2846 14.1585 49.6645 14.1585 50.1334V56.2999H4.499V41.8708Z" fill="black"/>
</g>
<defs>
<clipPath id="clip0">
<rect width="58" height="58" fill="white"/>
</clipPath>
</defs>
</svg>
