<svg width="58" height="58" viewBox="0 0 58 58" fill="none" xmlns="http://www.w3.org/2000/svg">
<path d="M20.9358 16.6143H3.95916L0.849548 24.8573V44.5492C0.849548 46.927 2.77762 48.8551 5.15542 48.8551H24.3228C24.6128 48.8551 24.8473 48.6206 24.8473 48.3306V39.464C24.8473 38.9542 24.4327 38.5396 23.9229 38.5396H23.0201C22.661 39.0935 22.0674 39.3824 21.4681 39.3824C20.9946 39.3824 20.5188 39.2012 20.1529 38.8285C19.6261 38.2904 19.3633 37.5914 19.3633 36.8925C19.3633 36.1935 19.6261 35.4934 20.1529 34.9565C20.5188 34.5838 20.9957 34.4025 21.4692 34.4025C22.0674 34.4025 22.661 34.6902 23.0201 35.2442H23.9229C24.4327 35.2442 24.8473 34.8307 24.8473 34.3209V24.957V24.8573L20.9358 16.6143Z" fill="#B8DE9C"/>
<path d="M44.5376 0.860733H24.8469L19.1293 5.17272V22.3252L24.8469 24.8575H34.5053C34.8135 24.8575 35.0638 25.1079 35.0638 25.4171V26.6847C34.5099 27.0438 34.2221 27.6374 34.2221 28.2356C34.2221 28.7091 34.4023 29.186 34.7761 29.5519C35.313 30.0787 36.0131 30.3415 36.711 30.3415C37.411 30.3415 38.1089 30.0787 38.647 29.5519C39.0208 29.186 39.2009 28.7091 39.2009 28.2356C39.2009 27.6374 38.9132 27.0438 38.3592 26.6847V25.4171C38.3592 25.1079 38.6096 24.8575 38.9177 24.8575H48.4459C48.6657 24.8575 48.8435 24.6796 48.8435 24.4599V5.1666C48.8435 2.7888 46.9154 0.860733 44.5376 0.860733Z" fill="#B3E5EE"/>
<path d="M12.0305 43.5439C9.85441 43.5439 8.09037 41.7798 8.09037 39.6038V16.6142H3.95873L0.849121 24.8572V44.5491C0.849121 46.9269 2.77719 48.855 5.15499 48.855H24.3224C24.6124 48.855 24.8469 48.6205 24.8469 48.3305V43.5439H12.0305Z" fill="#A6D786"/>
<path d="M29.5402 11.0573C30.067 11.5954 30.3309 12.2932 30.3309 12.9933C30.3309 13.6911 30.067 14.3912 29.5402 14.9282C29.1743 15.3009 28.6974 15.4821 28.2239 15.4821C27.6257 15.4821 27.0321 15.1944 26.673 14.6404H25.4054C25.0961 14.6404 24.8469 14.8908 24.8469 15.1989V24.8574H24.7472H15.3833C14.8735 24.8574 14.46 24.4439 14.46 23.9341V23.0313C15.0128 22.6722 15.3017 22.0786 15.3017 21.4804C15.3017 21.0058 15.1205 20.53 14.7478 20.1641C14.2108 19.6362 13.5107 19.3734 12.8118 19.3734C12.1128 19.3734 11.4139 19.6362 10.8758 20.1641C10.5031 20.53 10.3218 21.0058 10.3218 21.4804C10.3218 22.0786 10.6107 22.6722 11.1635 23.0313V23.9341C11.1635 24.4439 10.75 24.8574 10.2402 24.8574H1.01678H0.849121V5.16662C0.849121 2.78882 2.77719 0.860748 5.15499 0.860748H24.8469V1.02841V10.7854C24.8469 11.0947 25.0961 11.345 25.4054 11.345H26.673C27.0321 10.7911 27.6257 10.5034 28.2239 10.5034C28.6974 10.5034 29.1743 10.6835 29.5402 11.0573Z" fill="#FBE88C"/>
<path d="M52.8444 57.1395C55.2224 57.1395 57.1502 55.2117 57.1502 52.8337V33.199C57.1502 33.1678 57.1248 33.1424 57.0935 33.1424H47.2248C46.9162 33.1424 46.666 33.3926 46.666 33.7012V34.9693C47.658 35.6123 47.7982 37.0091 46.9539 37.8365C45.8786 38.8903 44.1578 38.8903 43.0824 37.8365C42.2381 37.0091 42.3783 35.6123 43.3704 34.9693V33.7012C43.3704 33.3926 43.1201 33.1424 42.8115 33.1424H34.0656C33.5616 33.1424 33.1531 33.551 33.1531 34.0549V42.6051C33.1531 43.1154 32.7394 43.5291 32.229 43.5291H31.3262C30.6832 42.5371 29.2864 42.3968 28.459 43.2412C27.4051 44.3166 27.4051 46.0373 28.459 47.1127C29.2864 47.957 30.6832 47.8168 31.3262 46.8248H32.229C32.7394 46.8248 33.1531 47.2385 33.1531 47.7488V56.5219C33.1531 56.863 33.4296 57.1396 33.7708 57.1396H52.8444V57.1395Z" fill="#E79098"/>
<path d="M8.09068 1.93863C8.09068 1.56469 8.14393 1.20343 8.24124 0.860748H5.15542C2.77762 0.860748 0.849548 2.78882 0.849548 5.16662V24.8574H1.01721H8.09068V1.93863Z" fill="#F9DE58"/>
<path d="M39.4603 54.102C38.3788 54.102 37.5021 53.2253 37.5021 52.1438V33.1424H34.0659C33.5619 33.1424 33.1534 33.551 33.1534 34.0549V42.6051C33.1534 43.1154 32.7397 43.5291 32.2293 43.5291H31.3265C30.6835 42.5371 29.2867 42.3969 28.4593 43.2412C27.4054 44.3166 27.4054 46.0373 28.4593 47.1127C29.2867 47.957 30.6835 47.8168 31.3265 46.8248H32.2293C32.7397 46.8248 33.1534 47.2385 33.1534 47.7488V56.5219C33.1534 56.863 33.4299 57.1396 33.771 57.1396H52.8446C54.7811 57.1396 56.4188 55.8611 56.9602 54.1021H39.4603V54.102Z" fill="#E17983"/>
<path d="M34.2144 26.2756C33.747 26.7165 33.4517 27.3109 33.3861 27.9641C33.3038 28.7827 33.5937 29.5825 34.1814 30.1583C35.5766 31.5257 37.847 31.5259 39.2423 30.1583C39.83 29.5824 40.1199 28.7825 40.0377 27.9638C39.972 27.3106 39.6765 26.7164 39.2093 26.2755V25.7071H48.4459C49.1337 25.7071 49.6934 25.1475 49.6934 24.4595V5.16627C49.6934 2.32356 47.3808 0.0108948 44.5381 0.0108948H5.15538C2.31266 0.0108948 0 2.32356 0 5.16627V44.5488C0 47.3916 2.31266 49.7042 5.15538 49.7042H24.323C25.0803 49.7042 25.6963 49.0882 25.6963 48.3309V39.4639C25.6963 38.486 24.9008 37.6903 23.9227 37.6903H23.0198C22.7318 37.6903 22.4635 37.8362 22.3068 38.0778C22.1414 38.3329 21.8731 38.4967 21.5705 38.5272C21.2676 38.5572 20.9723 38.4504 20.7595 38.2332C20.0348 37.4937 20.0348 36.2905 20.7595 35.551C20.9722 35.3339 21.2674 35.2266 21.5705 35.2571C21.8731 35.2874 22.1414 35.4512 22.3068 35.7065C22.4635 35.9481 22.7318 36.094 23.0198 36.094H23.9227C24.9008 36.094 25.6963 35.2984 25.6963 34.3203V25.7071H34.2144V26.2756ZM23.9227 34.3948H23.4288C22.9879 33.9274 22.3936 33.632 21.7404 33.5664C20.9215 33.4841 20.1218 33.7741 19.546 34.3618C18.1785 35.7571 18.1785 38.0274 19.546 39.4227C20.1218 40.0104 20.9216 40.3002 21.7404 40.2181C22.3936 40.1525 22.988 39.857 23.4288 39.3897H23.9227C23.9637 39.3897 23.9971 39.423 23.9971 39.4642V48.0052H5.15538C3.24974 48.005 1.69924 46.4546 1.69924 44.549V25.7072H10.2403C11.2183 25.7072 12.0138 24.9116 12.0138 23.9337V23.0307C12.0138 22.7427 11.8679 22.4744 11.6263 22.3178C11.3712 22.1524 11.2074 21.8841 11.1769 21.5815C11.1466 21.2789 11.2537 20.9832 11.4709 20.7705C12.2105 20.0457 13.4138 20.0458 14.1531 20.7705C14.3703 20.9834 14.4774 21.279 14.4472 21.5816C14.4167 21.8842 14.2529 22.1525 13.9978 22.3179C13.7561 22.4745 13.6102 22.7429 13.6102 23.0308V23.9338C13.6102 24.9118 14.4058 25.7073 15.3839 25.7073H18.6303C19.0997 25.7073 19.48 25.3269 19.48 24.8577C19.48 24.3885 19.0997 24.0081 18.6303 24.0081H15.3839C15.3429 24.0081 15.3095 23.9748 15.3095 23.9338V23.4398C15.7769 22.9989 16.0722 22.4046 16.1378 21.7514C16.22 20.9327 15.9301 20.1328 15.3424 19.5569C13.9474 18.1897 11.6771 18.1895 10.2814 19.5569C9.6937 20.1328 9.40393 20.9327 9.48606 21.7514C9.55165 22.4046 9.84709 22.9989 10.3144 23.4398V23.9338C10.3144 23.9748 10.2811 24.0081 10.2401 24.0081H1.69924V5.16627C1.69924 3.26052 3.24974 1.71013 5.15538 1.71013H23.9971V10.7859C23.9971 11.5624 24.6289 12.1943 25.4055 12.1943H26.6736C26.9616 12.1943 27.23 12.0484 27.3866 11.8068C27.552 11.5517 27.8204 11.3879 28.123 11.3574C28.426 11.327 28.7211 11.4342 28.934 11.6514C29.6585 12.3909 29.6585 13.594 28.934 14.3336C28.7212 14.5507 28.4259 14.6577 28.123 14.6275C27.8204 14.5972 27.552 14.4334 27.3866 14.1781C27.23 13.9365 26.9616 13.7906 26.6736 13.7906H25.4055C24.629 13.7906 23.9971 14.4225 23.9971 15.199V24.0079H22.2512C21.7819 24.0079 21.4016 24.3883 21.4016 24.8575C21.4016 25.3267 21.7819 25.7071 22.2512 25.7071H23.9971V34.3203C23.9971 34.3615 23.9637 34.3948 23.9227 34.3948ZM25.6963 24.008V15.4899H26.2648C26.7057 15.9573 27.3 16.2527 27.9532 16.3183C28.772 16.4002 29.5716 16.1106 30.1476 15.5229C31.5149 14.1276 31.5149 11.8573 30.1476 10.462C29.5717 9.8743 28.772 9.58429 27.9532 9.66665C27.3 9.73224 26.7056 10.0277 26.2648 10.495H25.6963V1.71013H44.5379C46.4436 1.71013 47.9941 3.26052 47.9941 5.16627V24.008H38.9185C38.1419 24.008 37.5099 24.6399 37.5099 25.4164V26.6845C37.5099 26.9725 37.6558 27.2409 37.8974 27.3975C38.1527 27.5629 38.3165 27.8313 38.3468 28.1339C38.3773 28.4364 38.2701 28.732 38.053 28.9449C37.3132 29.6696 36.1102 29.6694 35.3706 28.9449C35.1534 28.7321 35.0463 28.4366 35.0767 28.134C35.1071 27.8314 35.2709 27.5629 35.5261 27.3975C35.7677 27.241 35.9136 26.9726 35.9136 26.6846V25.4166C35.9136 24.64 35.2817 24.0081 34.5051 24.0081H25.6963V24.008Z" fill="black"/>
<path d="M57.0937 32.2926H47.2251C46.4486 32.2926 45.8166 32.9245 45.8166 33.701V34.969C45.8166 35.257 45.9623 35.5253 46.2041 35.6819C46.4593 35.8473 46.623 36.1158 46.6535 36.4183C46.684 36.7209 46.5768 37.0165 46.3596 37.2293C45.6202 37.9539 44.4168 37.9541 43.6773 37.2293C43.4601 37.0165 43.353 36.7208 43.3834 36.4182C43.4137 36.1156 43.5775 35.8473 43.8328 35.6819C44.0744 35.5252 44.2203 35.2568 44.2203 34.9689V33.7009C44.2203 32.9244 43.5884 32.2925 42.8117 32.2925H33.2099C32.7102 32.2925 32.3036 32.699 32.3036 33.1987V36.0216C32.3036 36.4908 32.6839 36.8712 33.1533 36.8712C33.6226 36.8712 34.0029 36.4908 34.0029 36.0216V33.9917H42.5209V34.56C42.0535 35.0009 41.7582 35.5952 41.6926 36.2484C41.6103 37.0671 41.9001 37.867 42.488 38.4429C43.8833 39.8105 46.1536 39.8104 47.549 38.4429C48.1366 37.8671 48.4265 37.0672 48.3442 36.2485C48.2786 35.5952 47.9832 35.0009 47.5159 34.56V33.9917H56.3009V52.8334C56.3009 54.7392 54.7504 56.2896 52.8447 56.2896H34.003V47.7485C34.003 46.7705 33.2074 45.975 32.2293 45.975H31.3265C31.0385 45.975 30.7701 46.1209 30.6135 46.3625C30.4481 46.6176 30.1797 46.7814 29.8771 46.8118C29.5757 46.8424 29.2789 46.7351 29.066 46.5178C28.3414 45.7783 28.3415 44.5751 29.0661 43.8356C29.279 43.6185 29.5752 43.5117 29.8771 43.5417C30.1797 43.572 30.4481 43.7358 30.6135 43.9909C30.7701 44.2326 31.0385 44.3785 31.3265 44.3785H32.2293C33.2074 44.3785 34.003 43.5829 34.003 42.6049V39.6426C34.003 39.1734 33.6227 38.793 33.1534 38.793C32.684 38.793 32.3038 39.1734 32.3038 39.6426V42.6049C32.3038 42.6459 32.2703 42.6792 32.2293 42.6792H31.7354C31.2945 42.2118 30.7002 41.9165 30.0472 41.8509C29.2282 41.7687 28.4286 42.0584 27.8525 42.6463C26.4851 44.0416 26.4852 46.3119 27.8527 47.7072C28.4285 48.2949 29.2281 48.5844 30.0471 48.5025C30.7004 48.4369 31.2946 48.1416 31.7354 47.6742H32.2293C32.2703 47.6742 32.3038 47.7075 32.3038 47.7485V56.5216C32.3038 57.3306 32.962 57.9889 33.771 57.9889H52.8446C55.6873 57.9889 58 55.6763 58 52.8335V33.1988C58 32.6991 57.5934 32.2926 57.0937 32.2926Z" fill="black"/>
</svg>
