<svg width="58" height="58" viewBox="0 0 58 58" fill="none" xmlns="http://www.w3.org/2000/svg">
<g clip-path="url(#clip0)">
<path d="M34.3633 41.7501L34.4632 41.6803C36.1299 40.5163 37.521 39.0008 38.5386 37.2409L39.1458 37.5829C39.2637 37.6493 39.413 37.6107 39.484 37.4955L40.3524 36.0864C44.2034 29.8377 43.9692 21.8974 39.7565 15.8866C34.4991 8.3851 23.3872 8.3851 18.13 15.8866C13.9174 21.8974 13.6831 29.8378 17.534 36.0864L18.5294 37.7017L19.3477 37.2408C20.3651 39.0007 21.7562 40.5161 23.423 41.6801L23.5229 41.75L26.3617 43.8832H32.1564L34.3633 41.7501Z" fill="#A59CA6"/>
<path d="M31.8628 40.7463L37.33 43.6983C40.5253 45.4235 42.5168 48.7622 42.5168 52.3933V55.7329C42.5168 56.3961 41.9792 56.9338 41.3159 56.9338H16.57C15.9067 56.9338 15.3691 56.3961 15.3691 55.7329V52.3933C15.3691 48.7621 17.3606 45.4235 20.5559 43.6983L26.0231 40.7463L27.6276 40.0351H30.6596L31.8628 40.7463Z" fill="#B8DE9C"/>
<path d="M32.4516 41.0642L31.8627 40.7463L30.6595 40.0351H27.6275L26.0231 40.7463L20.5558 43.6983C17.3606 45.4235 15.3691 48.7622 15.3691 52.3934V55.7328C15.3691 56.3961 15.9067 56.9337 16.57 56.9337H19.0572C19.0541 56.8987 19.0519 56.8636 19.0519 56.8277V53.4883C19.0519 49.857 21.0434 46.5184 24.2386 44.793C24.698 44.545 25.2614 44.6417 25.6246 45.0169C26.4656 45.886 27.6434 46.427 28.9457 46.4262C31.4871 46.4247 33.5654 44.2527 33.5654 41.7113V41.6655L32.4516 41.0642Z" fill="#A6D786"/>
<path d="M31.8628 41.804C31.8628 43.4166 30.5556 44.7237 28.9431 44.7237C27.3306 44.7237 26.0233 43.4165 26.0233 41.804V33.7766H31.8629V41.804H31.8628Z" fill="#FFD1C2"/>
<path d="M20.7079 25.3399V30.9081C20.7079 35.4876 24.4204 39.2002 29 39.2002C33.5796 39.2002 37.2922 35.4876 37.2922 30.9081V22.3551C37.2922 21.7036 36.5423 21.3376 36.0287 21.7386L34.7262 22.7555C32.9122 24.1717 30.6769 24.941 28.3756 24.941H21.1067C20.8864 24.941 20.7079 25.1195 20.7079 25.3399Z" fill="#FFE0D1"/>
<path d="M28.1691 26.9563C31.0211 26.9563 33.7912 26.1308 36.0391 24.6109L37.2918 23.7641V22.355C37.2918 21.7035 36.5419 21.3376 36.0283 21.7385L34.7259 22.7554C32.9119 24.1716 30.6765 24.9409 28.3752 24.9409H21.1064C20.886 24.9409 20.7075 25.1195 20.7075 25.3398V26.9562H28.1691V26.9563Z" fill="#FFD1C2"/>
<path d="M50.9946 13.3744C54.3935 13.3744 57.1488 10.6191 57.1488 7.22026C57.1488 3.82141 54.3935 1.0661 50.9946 1.0661C47.5958 1.0661 44.8405 3.82141 44.8405 7.22026C44.8405 10.6191 47.5958 13.3744 50.9946 13.3744Z" fill="#FBE88C"/>
<path d="M50.9946 51.7081C54.3935 51.7081 57.1488 48.9528 57.1488 45.5539C57.1488 42.1551 54.3935 39.3997 50.9946 39.3997C47.5958 39.3997 44.8405 42.1551 44.8405 45.5539C44.8405 48.9528 47.5958 51.7081 50.9946 51.7081Z" fill="#B3E5EE"/>
<path d="M51.9942 29.8269C53.8939 29.8269 55.434 28.2868 55.434 26.3871C55.434 24.4874 53.8939 22.9473 51.9942 22.9473C50.0945 22.9473 48.5544 24.4874 48.5544 26.3871C48.5544 28.2868 50.0945 29.8269 51.9942 29.8269Z" fill="#E79098"/>
<path d="M7.00548 13.3744C10.4043 13.3744 13.1596 10.6191 13.1596 7.22026C13.1596 3.82141 10.4043 1.0661 7.00548 1.0661C3.60663 1.0661 0.851318 3.82141 0.851318 7.22026C0.851318 10.6191 3.60663 13.3744 7.00548 13.3744Z" fill="#FBE88C"/>
<path d="M48.5549 7.22026C48.5549 4.46874 50.3592 2.13849 52.8502 1.3508C52.2641 1.16543 51.642 1.0661 50.9946 1.0661C47.5958 1.0661 44.8405 3.82136 44.8405 7.22026C44.8405 10.619 47.5957 13.3743 50.9946 13.3743C51.642 13.3743 52.2658 13.2737 52.8519 13.0885C50.3609 12.3009 48.5549 9.97178 48.5549 7.22026Z" fill="#FBE372"/>
<path d="M4.56579 7.22253C4.56579 4.47102 6.37058 2.14155 8.86158 1.35398C8.2755 1.16861 7.65286 1.06849 7.00548 1.06849C3.60658 1.06849 0.851318 3.82375 0.851318 7.22253C0.851318 10.6213 3.60658 13.3766 7.00548 13.3766C7.65286 13.3766 8.27663 13.2761 8.86271 13.0907C6.37172 12.3032 4.56579 9.97405 4.56579 7.22253Z" fill="#FBE372"/>
<path d="M7.00548 51.7081C10.4043 51.7081 13.1596 48.9528 13.1596 45.5539C13.1596 42.1551 10.4043 39.3997 7.00548 39.3997C3.60663 39.3997 0.851318 42.1551 0.851318 45.5539C0.851318 48.9528 3.60663 51.7081 7.00548 51.7081Z" fill="#B3E5EE"/>
<path d="M48.5549 44.7236C48.5549 42.4698 49.7689 40.499 51.5763 39.4269C51.3852 39.409 51.1903 39.3997 50.9946 39.3997C47.5958 39.3997 44.8405 42.155 44.8405 45.5539C44.8405 48.9527 47.5957 51.7081 50.9946 51.7081C52.1396 51.7081 53.2127 51.3947 54.1309 50.8501C51.0042 50.5576 48.5549 47.9267 48.5549 44.7236Z" fill="#86D7E5"/>
<path d="M4.56579 44.7236C4.56579 42.4698 5.77939 40.499 7.58679 39.4269C7.39575 39.409 7.20118 39.3997 7.00536 39.3997C3.60658 39.3997 0.851318 42.1551 0.851318 45.5539C0.851318 48.9527 3.60658 51.7081 7.00548 51.7081C8.1504 51.7081 9.22301 51.395 10.1411 50.8505C7.01456 50.5579 4.56579 47.9267 4.56579 44.7236Z" fill="#86D7E5"/>
<path d="M6.00617 29.8269C7.90589 29.8269 9.44592 28.2868 9.44592 26.3871C9.44592 24.4874 7.90589 22.9473 6.00617 22.9473C4.10644 22.9473 2.56641 24.4874 2.56641 26.3871C2.56641 28.2868 4.10644 29.8269 6.00617 29.8269Z" fill="#E79098"/>
<path d="M50.8459 26.387C50.8459 24.8891 51.805 23.6151 53.1413 23.1431C52.783 23.0165 52.3964 22.9474 51.9947 22.9474C50.095 22.9474 48.5549 24.4873 48.5549 26.387C48.5549 28.2867 50.0949 29.8268 51.9947 29.8268C52.3964 29.8268 52.783 29.7576 53.1413 29.6311C51.805 29.1591 50.8459 27.885 50.8459 26.387Z" fill="#E17983"/>
<path d="M4.85727 26.387C4.85727 24.8891 5.81467 23.6145 7.15109 23.1425C6.79272 23.016 6.40779 22.9474 6.00606 22.9474C4.10636 22.9474 2.56641 24.4873 2.56641 26.387C2.56641 28.2867 4.10636 29.8268 6.00606 29.8268C6.40779 29.8268 6.79465 29.7575 7.15302 29.631C5.81671 29.159 4.85727 27.885 4.85727 26.387Z" fill="#E17983"/>
<path d="M17.1731 46.6395C16.7681 46.4009 16.246 46.5352 16.0071 46.9402C15.0328 48.5917 14.5177 50.4775 14.5177 52.3935V56.9338C14.5177 57.4041 14.8989 57.7852 15.3691 57.7852C15.8392 57.7852 16.2204 57.4041 16.2204 56.9338V52.3935C16.2204 50.7816 16.6537 49.1949 17.4736 47.8053C17.7127 47.4004 17.5781 46.8784 17.1731 46.6395Z" fill="black"/>
<path d="M37.7348 42.9492L35.6749 41.837C36.8989 40.8633 37.9728 39.6902 38.8329 38.3838L38.9391 38.4436C39.3375 38.6681 39.8418 38.5378 40.0817 38.1484L41.0771 36.5332C43.5034 32.5961 44.4291 27.911 43.684 23.3405C43.6083 22.8764 43.1709 22.5615 42.7068 22.6372C42.2427 22.713 41.9278 23.1504 42.0035 23.6145C42.6828 27.7808 41.839 32.0515 39.6276 35.6399L39.0617 36.5583L38.9565 36.4991C38.5499 36.2702 38.035 36.411 37.8016 36.8147C36.8631 38.4382 35.558 39.8655 34.0259 40.9464L32.7144 40.2382V39.26C35.9098 37.8332 38.1435 34.6275 38.1435 30.9079V22.3549C38.1435 21.7254 37.7921 21.1629 37.2263 20.8868C36.6606 20.6105 36.0009 20.68 35.5047 21.0673L34.2023 22.0842C33.0764 22.9631 31.7595 23.573 30.3717 23.8738L32.5172 21.2966C32.818 20.9352 32.769 20.3985 32.4077 20.0977C32.0464 19.7968 31.5094 19.8459 31.2087 20.2072L27.9765 24.0895H24.8996L27.1763 21.289C27.4729 20.9241 27.4176 20.3879 27.0528 20.0913C26.6881 19.7947 26.1517 19.85 25.8552 20.2148L22.7052 24.0895H21.1068C20.4174 24.0895 19.8566 24.6502 19.8566 25.3397V30.9079C19.8566 34.5833 22.0374 37.757 25.1722 39.2085V40.2382L23.8608 40.9464C22.3285 39.8653 21.0235 38.4382 20.0849 36.8147C19.8514 36.4107 19.3365 36.2701 18.93 36.4991L18.8249 36.5583L18.2589 35.6399C14.5828 29.6749 14.806 22.1131 18.8272 16.3752C21.1715 13.0303 24.8586 11.1118 28.9433 11.1118C33.0279 11.1118 36.715 13.0303 39.0594 16.3752C39.8783 17.5437 40.5545 18.8165 41.0695 20.1585C41.238 20.5975 41.7305 20.8166 42.1694 20.6483C42.6083 20.48 42.8277 19.9876 42.6592 19.5486C42.0945 18.0767 41.3525 16.6803 40.4538 15.398C37.7864 11.592 33.591 9.4091 28.9434 9.4091C24.2958 9.4091 20.1004 11.5919 17.433 15.398C13.0212 21.693 12.7764 29.9891 16.8094 36.5333L17.8049 38.1485C18.0446 38.5378 18.5491 38.6682 18.9475 38.4437L19.0537 38.384C19.9138 39.6903 20.9876 40.8634 22.2118 41.837L20.1519 42.9492C19.6168 43.2381 19.1033 43.5748 18.6252 43.9495C18.2553 44.2398 18.1906 44.7749 18.4809 45.1449C18.6487 45.359 18.8988 45.4708 19.1513 45.4708C19.3352 45.4708 19.5203 45.4116 19.6762 45.2893C20.0782 44.9738 20.5106 44.6906 20.9609 44.4474L25.19 42.1639C25.372 44.075 26.9856 45.5749 28.9436 45.5749C30.9016 45.5749 32.5153 44.075 32.6973 42.1639L36.9263 44.4474C39.85 46.026 41.6662 49.0708 41.6662 52.3933V56.9337C41.6662 57.404 42.0474 57.7851 42.5175 57.7851C42.9877 57.7851 43.3689 57.404 43.3689 56.9337V52.3933C43.3683 48.4443 41.2097 44.8255 37.7348 42.9492ZM21.5591 30.9081V25.7925H28.3754C30.8543 25.7925 33.2958 24.9524 35.25 23.4267L36.4407 22.4972V30.9082C36.4407 35.0112 33.1027 38.3491 28.9999 38.3491C24.8971 38.3491 21.5591 35.0109 21.5591 30.9081ZM28.9432 43.8723C27.8027 43.8723 26.8747 42.9445 26.8747 41.804V39.7997C27.5571 39.9629 28.2682 40.0517 28.9999 40.0517C29.6912 40.0517 30.3638 39.972 31.0117 39.826V41.804C31.0115 42.9445 30.0837 43.8723 28.9432 43.8723Z" fill="black"/>
<path d="M42.5178 15.6297C42.7194 15.6297 42.9218 15.5585 43.0841 15.4138L46.3749 12.4798C47.6092 13.5653 49.2259 14.2257 50.9949 14.2257C54.8578 14.2257 58.0005 11.083 58.0005 7.22017C58.0005 3.35745 54.8578 0.214756 50.9949 0.214756C47.1321 0.214756 43.9895 3.35745 43.9895 7.22017C43.9895 8.70178 44.4531 10.0766 45.2411 11.2096L41.951 14.1429C41.6 14.4558 41.5692 14.994 41.8821 15.345C42.0502 15.5335 42.2835 15.6297 42.5178 15.6297ZM50.9949 1.9175C53.9189 1.9175 56.2977 4.29623 56.2977 7.22017C56.2977 10.1441 53.9189 12.523 50.9949 12.523C48.071 12.523 45.6923 10.1441 45.6923 7.22017C45.6923 4.29623 48.071 1.9175 50.9949 1.9175Z" fill="black"/>
<path d="M50.9949 38.5484C49.2259 38.5484 47.6092 39.2088 46.3749 40.2943L43.0841 37.3603C42.7332 37.0474 42.1951 37.0784 41.8821 37.4291C41.5692 37.7801 41.6 38.3183 41.951 38.6312L45.2411 41.5645C44.4531 42.6975 43.9895 44.0722 43.9895 45.554C43.9895 49.4168 47.1322 52.5595 50.9949 52.5595C54.8578 52.5595 58.0005 49.4168 58.0005 45.554C58.0005 41.6911 54.8578 38.5484 50.9949 38.5484ZM50.9949 50.8568C48.071 50.8568 45.6923 48.4779 45.6923 45.554C45.6923 42.63 48.0711 40.2512 50.9949 40.2512C53.9189 40.2512 56.2977 42.63 56.2977 45.554C56.2977 48.4779 53.9189 50.8568 50.9949 50.8568Z" fill="black"/>
<path d="M51.9942 22.096C49.9195 22.096 48.1842 23.5761 47.7882 25.5357H46.725C46.2548 25.5357 45.8736 25.9168 45.8736 26.3871C45.8736 26.8574 46.2548 27.2385 46.725 27.2385H47.7882C48.1842 29.1981 49.9195 30.6781 51.9942 30.6781C54.3603 30.6781 56.2852 28.7532 56.2852 26.3871C56.2852 24.021 54.3602 22.096 51.9942 22.096ZM51.9942 28.9753C50.5669 28.9753 49.4058 27.8141 49.4058 26.387C49.4058 24.9598 50.5669 23.7986 51.9942 23.7986C53.4214 23.7986 54.5824 24.9598 54.5824 26.387C54.5824 27.8142 53.4213 28.9753 51.9942 28.9753Z" fill="black"/>
<path d="M7.00553 14.2257C8.77456 14.2257 10.3913 13.5653 11.6255 12.4798L14.9164 15.4138C15.0787 15.5585 15.281 15.6297 15.4827 15.6297C15.7169 15.6297 15.9503 15.5334 16.1185 15.3449C16.4313 14.9939 16.4006 14.4557 16.0496 14.1428L12.7594 11.2096C13.5473 10.0766 14.0111 8.7019 14.0111 7.22028C14.0111 6.28889 13.8303 5.38303 13.474 4.5278C13.2932 4.09383 12.7946 3.8887 12.3607 4.06942C11.9266 4.25025 11.7214 4.7487 11.9023 5.18279C12.1718 5.82937 12.3083 6.5149 12.3083 7.22028C12.3083 10.1442 9.92948 12.523 7.00564 12.523C4.08158 12.523 1.70274 10.1442 1.70274 7.22028C1.70274 4.29622 4.08158 1.91738 7.00553 1.91738C8.01934 1.91738 9.00591 2.20583 9.8583 2.7515C10.2544 3.00509 10.7808 2.88953 11.0343 2.49348C11.2878 2.09753 11.1722 1.57093 10.7763 1.31756C9.64921 0.59617 8.34525 0.214756 7.00553 0.214756C3.14269 0.214642 0 3.35745 0 7.22028C0 11.083 3.14269 14.2257 7.00553 14.2257Z" fill="black"/>
<path d="M16.0495 38.631C16.4005 38.3182 16.4312 37.78 16.1184 37.429C15.8054 37.078 15.2673 37.0471 14.9163 37.3602L11.6255 40.2941C10.3913 39.2087 8.77456 38.5483 7.00553 38.5483C3.14269 38.5481 0 41.6908 0 45.5537C0 49.4165 3.14269 52.5592 7.00553 52.5592C10.8684 52.5592 14.0109 49.4165 14.0109 45.5537C14.0109 44.0721 13.5473 42.6973 12.7593 41.5643L16.0495 38.631ZM7.00553 50.8564C4.08158 50.8564 1.70274 48.4776 1.70274 45.5537C1.70274 42.6297 4.08158 40.2509 7.00553 40.2509C9.92948 40.2509 12.3082 42.6297 12.3082 45.5537C12.3082 48.4776 9.92948 50.8564 7.00553 50.8564Z" fill="black"/>
<path d="M10.2116 25.5357C9.81556 23.5761 8.08024 22.096 6.00562 22.096C3.63949 22.096 1.7146 24.021 1.7146 26.3871C1.7146 28.7532 3.63961 30.6781 6.00562 30.6781C8.08024 30.6781 9.81556 29.1981 10.2116 27.2385H11.2748C11.745 27.2385 12.1262 26.8574 12.1262 26.3871C12.1262 25.9168 11.745 25.5357 11.2748 25.5357H10.2116ZM6.00562 28.9753C4.57838 28.9753 3.41734 27.8141 3.41734 26.387C3.41734 24.9598 4.5785 23.7986 6.00562 23.7986C7.43274 23.7986 8.59401 24.9598 8.59401 26.387C8.5939 27.8142 7.43274 28.9753 6.00562 28.9753Z" fill="black"/>
</g>
<defs>
<clipPath id="clip0">
<rect width="58" height="58" fill="white"/>
</clipPath>
</defs>
</svg>
