<svg width="58" height="58" viewBox="0 0 58 58" fill="none" xmlns="http://www.w3.org/2000/svg">
<g clip-path="url(#clip0)">
<path d="M42.3761 34.393H18.0401V25.2955C18.0401 24.3111 18.838 23.5132 19.8224 23.5132H40.5938C41.5782 23.5132 42.3761 24.3111 42.3761 25.2955V34.393Z" fill="#B3E5EE"/>
<path d="M21.2457 28.2408C21.2457 27.2564 22.0436 26.4585 23.028 26.4585H42.3761V25.2955C42.3761 24.3111 41.5782 23.5132 40.5938 23.5132H19.8224C18.838 23.5132 18.0401 24.3111 18.0401 25.2955V34.393H21.2457V28.2408Z" fill="#86D7E5"/>
<path d="M48.0407 41.9697H12.3754V34.0126C12.3754 32.845 13.322 31.8984 14.4896 31.8984H45.9265C47.0941 31.8984 48.0407 32.845 48.0407 34.0126V41.9697Z" fill="#B3E5EE"/>
<path d="M16.4212 36.667C16.4212 35.4994 17.3678 34.5529 18.5354 34.5529H48.0407V34.0125C48.0407 32.8449 47.0941 31.8984 45.9265 31.8984H14.4896C13.322 31.8984 12.3754 32.8449 12.3754 34.0125V41.9697H16.4212V36.667Z" fill="#86D7E5"/>
<path d="M30.9312 1.08059L33.5105 6.30684C33.6178 6.52433 33.8253 6.67503 34.0652 6.70984L39.8328 7.54792C40.4371 7.63568 40.6784 8.3784 40.2411 8.80453L36.0677 12.8726C35.8941 13.0419 35.8149 13.2857 35.8558 13.5247L36.8411 19.2689C36.9443 19.8708 36.3125 20.3297 35.7721 20.0456L30.6135 17.3334C30.3988 17.2206 30.1424 17.2206 29.9278 17.3334L24.7691 20.0456C24.2286 20.3297 23.5969 19.8707 23.7002 19.2689L24.6854 13.5247C24.7264 13.2857 24.6472 13.0419 24.4735 12.8726L20.3001 8.80453C19.8629 8.37829 20.1042 7.63568 20.7084 7.54792L26.476 6.70984C26.7159 6.67491 26.9234 6.52421 27.0307 6.30684L29.61 1.08059C29.8801 0.533023 30.661 0.533023 30.9312 1.08059Z" fill="#FBE88C"/>
<path d="M36.8409 19.2692L36.6905 18.3922L30.846 15.3195C30.5937 15.1868 30.2922 15.1868 30.0399 15.3195L26.8989 16.9708C26.5912 17.1325 26.2317 16.8714 26.2904 16.5288L27.0265 12.2366C27.0675 11.9975 26.9883 11.7537 26.8146 11.5845L24.7775 9.59884C24.3956 9.22658 24.6064 8.57809 25.1341 8.50143L28.4592 8.01827C28.6992 7.98334 28.9067 7.83265 29.014 7.61527L31.5849 2.40592L30.9309 1.08059C30.6606 0.533023 29.8797 0.533023 29.6095 1.08059L27.0302 6.30684C26.9228 6.52433 26.7154 6.67503 26.4755 6.70984L20.7079 7.54792C20.1036 7.63568 19.8623 8.37829 20.2995 8.80464L24.4729 12.8727C24.6466 13.0419 24.7258 13.2858 24.6849 13.5248L23.6997 19.269C23.5965 19.8709 24.2282 20.3299 24.7688 20.0458L29.9275 17.3338C30.1421 17.221 30.3985 17.221 30.6131 17.3338L35.7718 20.0459C36.3123 20.3299 36.944 19.8709 36.8409 19.2692Z" fill="#FBE372"/>
<path d="M51.6389 51.6197H8.89141V41.4204C8.89141 40.4086 9.71168 39.5883 10.7235 39.5883H49.8067C50.8185 39.5883 51.6388 40.4086 51.6388 41.4204V51.6197H51.6389Z" fill="#B3E5EE"/>
<path d="M13.0729 44.1369C13.0729 43.1251 13.8932 42.3048 14.905 42.3048H51.6389V41.4206C51.6389 40.4088 50.8186 39.5885 49.8068 39.5885H10.7236C9.71175 39.5885 8.89147 40.4088 8.89147 41.4206V51.6199H13.0729V44.1369Z" fill="#86D7E5"/>
<path d="M53.7858 57.1498H6.74414C6.03351 57.1498 5.45748 56.5737 5.45748 55.8631V49.4811C5.45748 48.2826 6.42902 47.3112 7.62735 47.3112H52.9025C54.1009 47.3112 55.0723 48.2827 55.0723 49.4811V55.8631C55.0725 56.5736 54.4964 57.1498 53.7858 57.1498Z" fill="#B3E5EE"/>
<path d="M10.4502 52.1819C10.4502 50.9836 11.4218 50.012 12.6201 50.012H55.0723V49.481C55.0723 48.2826 54.1008 47.3111 52.9025 47.3111H7.62735C6.42891 47.3111 5.45748 48.2826 5.45748 49.481V55.8632C5.45748 56.5738 6.03351 57.1498 6.74414 57.1498H10.4502V52.1819Z" fill="#86D7E5"/>
<path d="M53.3648 29.6104V25.8415C53.3648 25.7253 53.459 25.6311 53.5751 25.6311H55.4486C55.6292 25.6311 55.7258 25.4185 55.6071 25.2825L51.7972 20.9176C51.7134 20.8215 51.5641 20.8215 51.4803 20.9176L47.6704 25.2825C47.5517 25.4185 47.6483 25.6311 47.829 25.6311H49.7024C49.8186 25.6311 49.9128 25.7254 49.9128 25.8415V29.6104C49.9128 29.8193 50.0822 29.9887 50.291 29.9887H52.9866C53.1953 29.9887 53.3648 29.8193 53.3648 29.6104Z" fill="#E79098"/>
<path d="M8.08716 34.2329V30.4132C8.08716 30.297 8.18139 30.2029 8.29751 30.2029H10.171C10.3516 30.2029 10.4482 29.9902 10.3295 29.8542L6.51963 25.4893C6.43583 25.3932 6.28649 25.3932 6.2027 25.4893L2.39283 29.8542C2.27411 29.9902 2.37072 30.2029 2.55136 30.2029H4.42482C4.54105 30.2029 4.63516 30.2971 4.63516 30.4132V34.2329C4.63516 34.4138 4.78178 34.5604 4.96264 34.5604H7.7598C7.94055 34.5604 8.08716 34.4138 8.08716 34.2329Z" fill="#E79098"/>
<path d="M52.9023 46.4604H52.4889V41.4205C52.4889 39.9413 51.2856 38.738 49.8065 38.738H48.8912V34.0125C48.8912 32.3778 47.5612 31.0478 45.9265 31.0478H43.2264V25.2954C43.2264 23.8437 42.0455 22.6627 40.5937 22.6627H19.8223C18.3707 22.6627 17.1896 23.8437 17.1896 25.2954V31.0478H14.4895C12.8548 31.0478 11.5248 32.3778 11.5248 34.0125V38.738H10.7231C9.24405 38.738 8.04062 39.9413 8.04062 41.4205V46.4604H7.62719C5.96169 46.4604 4.60688 47.8152 4.60688 49.4807V57.1496C4.60688 57.6194 4.98765 58 5.45732 58H55.0723C55.5421 58 55.9227 57.6194 55.9227 57.1496V49.4807C55.9226 47.8154 54.5677 46.4604 52.9023 46.4604ZM13.2258 34.0125C13.2258 33.3156 13.7928 32.7487 14.4896 32.7487H34.3957C34.8655 32.7487 35.2461 32.368 35.2461 31.8983C35.2461 31.4285 34.8655 31.0478 34.3957 31.0478H18.8904V25.2954C18.8904 24.7817 19.3085 24.3636 19.8223 24.3636H40.5937C41.1075 24.3636 41.5256 24.7817 41.5256 25.2954V31.0478H38.02C37.5503 31.0478 37.1696 31.4285 37.1696 31.8983C37.1696 32.368 37.5503 32.7487 38.02 32.7487H45.9265C46.6235 32.7487 47.1903 33.3156 47.1903 34.0125V38.738H13.2258V34.0125ZM54.2218 56.2991H6.30765V49.4807C6.30765 48.7532 6.89955 48.1613 7.62708 48.1613H17.6691C18.1388 48.1613 18.5195 47.7807 18.5195 47.3109C18.5195 46.8411 18.1388 46.4604 17.6691 46.4604H9.74139V41.4205C9.74139 40.8793 10.1818 40.4389 10.723 40.4389H49.8063C50.3475 40.4389 50.7878 40.8793 50.7878 41.4205V46.4604H21.2933C20.8237 46.4604 20.4429 46.8411 20.4429 47.3109C20.4429 47.7807 20.8237 48.1613 21.2933 48.1613H52.9022C53.6297 48.1613 54.2218 48.7532 54.2218 49.4807V56.2991Z" fill="black"/>
<path d="M23.8312 13.6206L22.8562 19.3058C22.7533 19.9057 22.9952 20.5004 23.4875 20.8582C23.9799 21.2157 24.6203 21.2622 25.159 20.9789L30.2648 18.2947L35.3705 20.9789C35.6047 21.1021 35.8584 21.163 36.1106 21.163C36.4383 21.163 36.7638 21.0602 37.0421 20.8581C37.5345 20.5004 37.7763 19.9056 37.6732 19.3058L36.6982 13.6206L40.8288 9.59413C41.2647 9.16936 41.4186 8.54593 41.2306 7.96706C41.0426 7.3882 40.5516 6.97431 39.9493 6.88689L38.649 6.69798C38.1849 6.62949 37.7526 6.95243 37.6852 7.41734C37.6176 7.88213 37.9396 8.31359 38.4045 8.38117L39.4766 8.53697L35.4683 12.4442C35.0941 12.8089 34.9234 13.334 35.0118 13.8492L35.9581 19.3663L31.0034 16.7614C30.541 16.5182 29.9885 16.5181 29.5262 16.7614L24.5714 19.3663L25.5177 13.8491C25.606 13.3339 25.4353 12.8087 25.0612 12.4444L21.0528 8.53697L26.5923 7.732C27.1094 7.65682 27.5562 7.33229 27.7874 6.86376L30.2648 1.84411L32.7422 6.86364C32.9732 7.33218 33.42 7.65682 33.9371 7.732L34.8041 7.85798C35.2691 7.92635 35.7004 7.60341 35.768 7.13873C35.8356 6.67382 35.5136 6.24237 35.0488 6.17479L34.2409 6.05742L31.6882 0.884926C31.4189 0.339056 30.8733 1.33514e-05 30.2648 1.33514e-05C29.6561 1.33514e-05 29.1108 0.339056 28.8415 0.884813L26.2885 6.05742L20.5801 6.88689C19.9779 6.97431 19.4869 7.38831 19.2989 7.96706C19.1109 8.54582 19.2648 9.16936 19.7006 9.59401L23.8312 13.6206Z" fill="black"/>
<path d="M30.2644 14.2596C30.7342 14.2596 31.1149 13.879 31.1149 13.4092V8.69583C31.1149 8.22604 30.7342 7.84539 30.2644 7.84539H29.2569C28.7873 7.84539 28.4065 8.22604 28.4065 8.69583C28.4065 9.16561 28.7873 9.54627 29.2569 9.54627H29.414V13.4092C29.414 13.8789 29.7948 14.2596 30.2644 14.2596Z" fill="black"/>
<path d="M44.8756 6.37875C45.0932 6.37875 45.3109 6.29575 45.477 6.12974L46.8888 4.71801C47.2209 4.38577 47.2209 3.84738 46.8888 3.51525C46.5565 3.18324 46.0181 3.18324 45.686 3.51525L44.2743 4.92699C43.9421 5.25923 43.9421 5.79762 44.2743 6.12974C44.4404 6.29563 44.6581 6.37875 44.8756 6.37875Z" fill="black"/>
<path d="M45.686 19.1884C45.8521 19.3544 46.0698 19.4374 46.2874 19.4374C46.505 19.4374 46.7227 19.3544 46.8888 19.1884C47.221 18.8562 47.221 18.3178 46.8888 17.9857L45.4771 16.574C45.1449 16.2419 44.6065 16.2419 44.2743 16.574C43.9422 16.9062 43.9422 17.4446 44.2743 17.7767L45.686 19.1884Z" fill="black"/>
<path d="M44.0252 11.352C44.0252 11.8217 44.4058 12.2024 44.8756 12.2024H47.4051C47.8749 12.2024 48.2555 11.8217 48.2555 11.352C48.2555 10.8822 47.8749 10.5015 47.4051 10.5015H44.8756C44.4059 10.5015 44.0252 10.8823 44.0252 11.352Z" fill="black"/>
<path d="M15.0524 6.1299C15.2184 6.29591 15.4361 6.37891 15.6537 6.37891C15.8713 6.37891 16.089 6.29591 16.2551 6.1299C16.5872 5.79766 16.5872 5.25927 16.2551 4.92715L14.8433 3.5153C14.5112 3.18329 13.9727 3.18329 13.6407 3.5153C13.3085 3.84754 13.3085 4.38593 13.6407 4.71805L15.0524 6.1299Z" fill="black"/>
<path d="M15.0524 16.5739L13.6407 17.9856C13.3085 18.3179 13.3085 18.8562 13.6407 19.1884C13.8067 19.3544 14.0244 19.4374 14.242 19.4374C14.4596 19.4374 14.6773 19.3544 14.8433 19.1884L16.2551 17.7766C16.5872 17.4444 16.5872 16.906 16.2551 16.5739C15.9229 16.2419 15.3844 16.2419 15.0524 16.5739Z" fill="black"/>
<path d="M13.1245 12.2024H15.6539C16.1236 12.2024 16.5044 11.8217 16.5044 11.352C16.5044 10.8822 16.1236 10.5015 15.6539 10.5015H13.1245C12.6548 10.5015 12.274 10.8822 12.274 11.352C12.274 11.8217 12.6548 12.2024 13.1245 12.2024Z" fill="black"/>
<path d="M56.2475 24.7232L52.4376 20.3581C52.2362 20.1274 51.9448 19.995 51.6384 19.995C51.3321 19.995 51.0407 20.1274 50.8392 20.3582L47.0295 24.723C46.7565 25.0357 46.6911 25.4817 46.8628 25.8596C47.0344 26.2373 47.4134 26.4814 47.8285 26.4814H49.0619V29.9885C49.0619 30.4583 49.4425 30.839 49.9123 30.839C50.3821 30.839 50.7628 30.4583 50.7628 29.9885V25.8413C50.7628 25.2564 50.287 24.7806 49.7021 24.7806H49.2369L51.6385 22.0291L54.04 24.7806H53.5748C52.9899 24.7806 52.5141 25.2564 52.5141 25.8413V29.9885C52.5141 30.4583 52.8948 30.839 53.3645 30.839C53.8343 30.839 54.215 30.4583 54.215 29.9885V26.4814H55.4483C55.8634 26.4814 56.2424 26.2373 56.4141 25.8596C56.5858 25.4819 56.5203 25.0357 56.2475 24.7232Z" fill="black"/>
<path d="M5.4853 34.5603V30.4131C5.4853 29.8282 5.0094 29.3523 4.42452 29.3523H3.95927L6.36081 26.6009L8.76234 29.3523H8.2972C7.71233 29.3523 7.23642 29.8282 7.23642 30.4131V34.5603C7.23642 35.0301 7.61719 35.4107 8.08686 35.4107C8.55653 35.4107 8.9373 35.0301 8.9373 34.5603V31.0531H10.1707C10.5856 31.0531 10.9646 30.8091 11.1364 30.4314C11.3081 30.0535 11.2428 29.6075 10.9699 29.2948L7.15988 24.9298C6.95838 24.6991 6.66719 24.5667 6.36081 24.5667C6.05442 24.5667 5.76323 24.6991 5.56162 24.9299L1.75164 29.2948C1.47882 29.6076 1.4135 30.0535 1.58518 30.4314C1.75697 30.8091 2.13593 31.0531 2.55094 31.0531H3.78431V34.5603C3.78431 35.0301 4.16508 35.4107 4.63475 35.4107C5.10442 35.4107 5.4853 35.0301 5.4853 34.5603Z" fill="black"/>
</g>
<defs>
<clipPath id="clip0">
<rect width="58" height="58" fill="white"/>
</clipPath>
</defs>
</svg>
