<svg width="58" height="58" viewBox="0 0 58 58" fill="none" xmlns="http://www.w3.org/2000/svg">
<g clip-path="url(#clip0)">
<path d="M29 56.1875C44.0152 56.1875 56.1875 44.0152 56.1875 29C56.1875 13.9848 44.0152 1.8125 29 1.8125C13.9848 1.8125 1.8125 13.9848 1.8125 29C1.8125 44.0152 13.9848 56.1875 29 56.1875Z" fill="#5ADE9C"/>
<path opacity="0.15" d="M32.6252 52.5626C27.4665 52.5625 22.4143 51.0947 18.0585 48.3306C13.7028 45.5666 10.2233 41.6203 8.02652 36.9527C5.8297 32.2851 5.00619 27.0888 5.65215 21.9707C6.29811 16.8526 8.38689 12.0239 11.6745 8.04846C8.75662 10.4614 6.37489 13.4573 4.68194 16.8442C2.98899 20.231 2.02215 23.9341 1.84336 27.7163C1.66457 31.4985 2.27777 35.2763 3.64369 38.8077C5.0096 42.3392 7.0981 45.5464 9.77539 48.2239C12.4527 50.9013 15.6597 52.9901 19.1911 54.3562C22.7224 55.7224 26.5002 56.3359 30.2824 56.1573C34.0646 55.9788 37.7678 55.0122 41.1547 53.3195C44.5417 51.6268 47.5377 49.2453 49.9509 46.3276C45.0812 50.3658 38.9515 52.5717 32.6252 52.5626Z" fill="#000028"/>
<path d="M48.2247 48.2245C58.8421 37.6071 58.8421 20.3929 48.2247 9.77553C37.6074 -0.841844 20.3932 -0.841846 9.7758 9.77553C-0.841582 20.3929 -0.841582 37.6071 9.7758 48.2245C20.3932 58.8418 37.6074 58.8418 48.2247 48.2245Z" stroke="#2E4369" stroke-linecap="round" stroke-linejoin="round"/>
<path d="M19.0293 29.0136L27.1783 37.1626L41.6882 22.6526" stroke="#2E4369" stroke-linecap="round" stroke-linejoin="round"/>
</g>
<defs>
<clipPath id="clip0">
<rect width="58" height="58" fill="white"/>
</clipPath>
</defs>
</svg>
